<?xml version="1.0" encoding="UTF-8"?>
<svg xmlns="http://www.w3.org/2000/svg" xmlns:xlink="http://www.w3.org/1999/xlink" width="2948" height="1936" viewBox="0 0 2948 1936">
<defs>
<clipPath id="clip-0">

</clipPath>
<clipPath id="clip-1">
<path clip-rule="nonzero" d="M 2066.328125 1635.71875 L 1899.441406 1539.070312 C 1893.398438 1535.570312 1890.898438 1530.730469 1891.71875 1525.800781 C 1892.019531 1529.808594 1894.589844 1533.601562 1899.570312 1536.488281 L 2066.460938 1633.128906 C 2078.179688 1639.921875 2098.671875 1639.101562 2112.21875 1631.300781 L 2453.621094 1434.820312 C 2460.191406 1431.050781 2463.890625 1426.320312 2464.671875 1421.691406 C 2465.070312 1427.109375 2461.289062 1432.921875 2453.488281 1437.410156 L 2112.089844 1633.878906 C 2098.539062 1641.679688 2078.050781 1642.511719 2066.328125 1635.71875 Z M 2066.328125 1635.71875 "/>
</clipPath>
<clipPath id="clip-2">
<path clip-rule="nonzero" d="M 2066.328125 1635.71875 L 1899.441406 1539.070312 C 1893.398438 1535.570312 1890.898438 1530.730469 1891.71875 1525.800781 C 1892.019531 1529.808594 1894.589844 1533.601562 1899.570312 1536.488281 L 2066.460938 1633.128906 C 2078.179688 1639.921875 2098.671875 1639.101562 2112.21875 1631.300781 L 2453.621094 1434.820312 C 2460.191406 1431.050781 2463.890625 1426.320312 2464.671875 1421.691406 C 2465.070312 1427.109375 2461.289062 1432.921875 2453.488281 1437.410156 L 2112.089844 1633.878906 C 2098.539062 1641.679688 2078.050781 1642.511719 2066.328125 1635.71875 "/>
</clipPath>
<linearGradient id="linear-pattern-0" gradientUnits="userSpaceOnUse" x1="-0.000663029" y1="0" x2="1.001157" y2="0" gradientTransform="matrix(-573.127, 0, 0, 573.127, 2464.69, 1531)">
<stop offset="0" stop-color="rgb(29.411316%, 52.156067%, 87.057495%)" stop-opacity="1"/>
<stop offset="0.0078125" stop-color="rgb(29.223633%, 52.252197%, 87.081909%)" stop-opacity="1"/>
<stop offset="0.0117188" stop-color="rgb(28.833008%, 52.455139%, 87.135315%)" stop-opacity="1"/>
<stop offset="0.015625" stop-color="rgb(28.630066%, 52.561951%, 87.162781%)" stop-opacity="1"/>
<stop offset="0.0195312" stop-color="rgb(28.425598%, 52.667236%, 87.188721%)" stop-opacity="1"/>
<stop offset="0.0234375" stop-color="rgb(28.22113%, 52.774048%, 87.216187%)" stop-opacity="1"/>
<stop offset="0.0273438" stop-color="rgb(28.016663%, 52.879333%, 87.243652%)" stop-opacity="1"/>
<stop offset="0.03125" stop-color="rgb(27.813721%, 52.986145%, 87.271118%)" stop-opacity="1"/>
<stop offset="0.0351562" stop-color="rgb(27.609253%, 53.091431%, 87.298584%)" stop-opacity="1"/>
<stop offset="0.0390625" stop-color="rgb(27.406311%, 53.198242%, 87.32605%)" stop-opacity="1"/>
<stop offset="0.0429688" stop-color="rgb(27.201843%, 53.303528%, 87.35199%)" stop-opacity="1"/>
<stop offset="0.046875" stop-color="rgb(26.997375%, 53.410339%, 87.379456%)" stop-opacity="1"/>
<stop offset="0.0507812" stop-color="rgb(26.792908%, 53.515625%, 87.406921%)" stop-opacity="1"/>
<stop offset="0.0546875" stop-color="rgb(26.589966%, 53.622437%, 87.434387%)" stop-opacity="1"/>
<stop offset="0.0585938" stop-color="rgb(26.385498%, 53.727722%, 87.461853%)" stop-opacity="1"/>
<stop offset="0.0625" stop-color="rgb(26.182556%, 53.834534%, 87.489319%)" stop-opacity="1"/>
<stop offset="0.0664062" stop-color="rgb(25.978088%, 53.939819%, 87.515259%)" stop-opacity="1"/>
<stop offset="0.0703125" stop-color="rgb(25.773621%, 54.046631%, 87.542725%)" stop-opacity="1"/>
<stop offset="0.0742188" stop-color="rgb(25.569153%, 54.151917%, 87.57019%)" stop-opacity="1"/>
<stop offset="0.078125" stop-color="rgb(25.366211%, 54.258728%, 87.597656%)" stop-opacity="1"/>
<stop offset="0.0820312" stop-color="rgb(25.161743%, 54.364014%, 87.623596%)" stop-opacity="1"/>
<stop offset="0.0859375" stop-color="rgb(24.958801%, 54.470825%, 87.651062%)" stop-opacity="1"/>
<stop offset="0.0898437" stop-color="rgb(24.754333%, 54.576111%, 87.678528%)" stop-opacity="1"/>
<stop offset="0.09375" stop-color="rgb(24.551392%, 54.682922%, 87.705994%)" stop-opacity="1"/>
<stop offset="0.0976563" stop-color="rgb(24.346924%, 54.788208%, 87.733459%)" stop-opacity="1"/>
<stop offset="0.101562" stop-color="rgb(24.142456%, 54.89502%, 87.760925%)" stop-opacity="1"/>
<stop offset="0.105469" stop-color="rgb(23.937988%, 55.000305%, 87.786865%)" stop-opacity="1"/>
<stop offset="0.109375" stop-color="rgb(23.735046%, 55.107117%, 87.814331%)" stop-opacity="1"/>
<stop offset="0.113281" stop-color="rgb(23.530579%, 55.212402%, 87.841797%)" stop-opacity="1"/>
<stop offset="0.117188" stop-color="rgb(23.327637%, 55.319214%, 87.869263%)" stop-opacity="1"/>
<stop offset="0.121094" stop-color="rgb(23.123169%, 55.4245%, 87.896729%)" stop-opacity="1"/>
<stop offset="0.125" stop-color="rgb(22.920227%, 55.531311%, 87.924194%)" stop-opacity="1"/>
<stop offset="0.128906" stop-color="rgb(22.715759%, 55.636597%, 87.950134%)" stop-opacity="1"/>
<stop offset="0.132812" stop-color="rgb(22.512817%, 55.743408%, 87.9776%)" stop-opacity="1"/>
<stop offset="0.136719" stop-color="rgb(22.30835%, 55.848694%, 88.005066%)" stop-opacity="1"/>
<stop offset="0.140625" stop-color="rgb(22.105408%, 55.955505%, 88.032532%)" stop-opacity="1"/>
<stop offset="0.144531" stop-color="rgb(21.90094%, 56.060791%, 88.058472%)" stop-opacity="1"/>
<stop offset="0.148438" stop-color="rgb(21.696472%, 56.167603%, 88.085938%)" stop-opacity="1"/>
<stop offset="0.152344" stop-color="rgb(21.492004%, 56.272888%, 88.113403%)" stop-opacity="1"/>
<stop offset="0.15625" stop-color="rgb(21.289062%, 56.3797%, 88.140869%)" stop-opacity="1"/>
<stop offset="0.160156" stop-color="rgb(21.084595%, 56.484985%, 88.168335%)" stop-opacity="1"/>
<stop offset="0.164062" stop-color="rgb(20.881653%, 56.591797%, 88.195801%)" stop-opacity="1"/>
<stop offset="0.167969" stop-color="rgb(20.677185%, 56.697083%, 88.221741%)" stop-opacity="1"/>
<stop offset="0.171875" stop-color="rgb(20.474243%, 56.803894%, 88.249207%)" stop-opacity="1"/>
<stop offset="0.175781" stop-color="rgb(20.269775%, 56.90918%, 88.276672%)" stop-opacity="1"/>
<stop offset="0.179687" stop-color="rgb(20.066833%, 57.014465%, 88.304138%)" stop-opacity="1"/>
<stop offset="0.183594" stop-color="rgb(19.862366%, 57.119751%, 88.330078%)" stop-opacity="1"/>
<stop offset="0.1875" stop-color="rgb(19.659424%, 57.226562%, 88.357544%)" stop-opacity="1"/>
<stop offset="0.191406" stop-color="rgb(19.454956%, 57.331848%, 88.38501%)" stop-opacity="1"/>
<stop offset="0.195313" stop-color="rgb(19.252014%, 57.43866%, 88.412476%)" stop-opacity="1"/>
<stop offset="0.199219" stop-color="rgb(19.047546%, 57.543945%, 88.439941%)" stop-opacity="1"/>
<stop offset="0.203125" stop-color="rgb(18.844604%, 57.650757%, 88.467407%)" stop-opacity="1"/>
<stop offset="0.207031" stop-color="rgb(18.640137%, 57.756042%, 88.493347%)" stop-opacity="1"/>
<stop offset="0.210938" stop-color="rgb(18.437195%, 57.862854%, 88.520813%)" stop-opacity="1"/>
<stop offset="0.214844" stop-color="rgb(18.232727%, 57.96814%, 88.548279%)" stop-opacity="1"/>
<stop offset="0.21875" stop-color="rgb(18.029785%, 58.074951%, 88.575745%)" stop-opacity="1"/>
<stop offset="0.222656" stop-color="rgb(17.825317%, 58.180237%, 88.601685%)" stop-opacity="1"/>
<stop offset="0.226562" stop-color="rgb(17.622375%, 58.285522%, 88.62915%)" stop-opacity="1"/>
<stop offset="0.230469" stop-color="rgb(17.417908%, 58.390808%, 88.656616%)" stop-opacity="1"/>
<stop offset="0.234375" stop-color="rgb(17.214966%, 58.49762%, 88.684082%)" stop-opacity="1"/>
<stop offset="0.238281" stop-color="rgb(17.010498%, 58.602905%, 88.711548%)" stop-opacity="1"/>
<stop offset="0.242188" stop-color="rgb(16.807556%, 58.709717%, 88.739014%)" stop-opacity="1"/>
<stop offset="0.246094" stop-color="rgb(16.603088%, 58.815002%, 88.764954%)" stop-opacity="1"/>
<stop offset="0.25" stop-color="rgb(16.400146%, 58.921814%, 88.792419%)" stop-opacity="1"/>
<stop offset="0.253906" stop-color="rgb(16.195679%, 59.0271%, 88.819885%)" stop-opacity="1"/>
<stop offset="0.257812" stop-color="rgb(15.992737%, 59.133911%, 88.847351%)" stop-opacity="1"/>
<stop offset="0.261719" stop-color="rgb(15.789795%, 59.239197%, 88.873291%)" stop-opacity="1"/>
<stop offset="0.265625" stop-color="rgb(15.586853%, 59.344482%, 88.900757%)" stop-opacity="1"/>
<stop offset="0.269531" stop-color="rgb(15.382385%, 59.449768%, 88.928223%)" stop-opacity="1"/>
<stop offset="0.273438" stop-color="rgb(15.179443%, 59.55658%, 88.955688%)" stop-opacity="1"/>
<stop offset="0.277344" stop-color="rgb(14.974976%, 59.661865%, 88.983154%)" stop-opacity="1"/>
<stop offset="0.28125" stop-color="rgb(14.772034%, 59.768677%, 89.01062%)" stop-opacity="1"/>
<stop offset="0.285156" stop-color="rgb(14.567566%, 59.873962%, 89.03656%)" stop-opacity="1"/>
<stop offset="0.289062" stop-color="rgb(14.364624%, 59.980774%, 89.064026%)" stop-opacity="1"/>
<stop offset="0.292969" stop-color="rgb(14.160156%, 60.08606%, 89.091492%)" stop-opacity="1"/>
<stop offset="0.296875" stop-color="rgb(13.957214%, 60.191345%, 89.118958%)" stop-opacity="1"/>
<stop offset="0.300781" stop-color="rgb(13.754272%, 60.296631%, 89.144897%)" stop-opacity="1"/>
<stop offset="0.304688" stop-color="rgb(13.551331%, 60.403442%, 89.172363%)" stop-opacity="1"/>
<stop offset="0.308594" stop-color="rgb(13.346863%, 60.508728%, 89.199829%)" stop-opacity="1"/>
<stop offset="0.3125" stop-color="rgb(13.143921%, 60.61554%, 89.227295%)" stop-opacity="1"/>
<stop offset="0.316406" stop-color="rgb(12.939453%, 60.720825%, 89.253235%)" stop-opacity="1"/>
<stop offset="0.320312" stop-color="rgb(12.736511%, 60.826111%, 89.280701%)" stop-opacity="1"/>
<stop offset="0.324219" stop-color="rgb(12.533569%, 60.931396%, 89.308167%)" stop-opacity="1"/>
<stop offset="0.328125" stop-color="rgb(12.330627%, 61.038208%, 89.335632%)" stop-opacity="1"/>
<stop offset="0.332031" stop-color="rgb(12.12616%, 61.143494%, 89.361572%)" stop-opacity="1"/>
<stop offset="0.335938" stop-color="rgb(11.923218%, 61.250305%, 89.389038%)" stop-opacity="1"/>
<stop offset="0.339844" stop-color="rgb(11.71875%, 61.355591%, 89.416504%)" stop-opacity="1"/>
<stop offset="0.34375" stop-color="rgb(11.515808%, 61.460876%, 89.44397%)" stop-opacity="1"/>
<stop offset="0.347656" stop-color="rgb(11.312866%, 61.566162%, 89.471436%)" stop-opacity="1"/>
<stop offset="0.351562" stop-color="rgb(11.109924%, 61.672974%, 89.498901%)" stop-opacity="1"/>
<stop offset="0.355469" stop-color="rgb(10.905457%, 61.778259%, 89.524841%)" stop-opacity="1"/>
<stop offset="0.359375" stop-color="rgb(10.702515%, 61.883545%, 89.552307%)" stop-opacity="1"/>
<stop offset="0.363281" stop-color="rgb(10.499573%, 61.988831%, 89.579773%)" stop-opacity="1"/>
<stop offset="0.367188" stop-color="rgb(10.296631%, 62.095642%, 89.607239%)" stop-opacity="1"/>
<stop offset="0.371094" stop-color="rgb(10.092163%, 62.200928%, 89.633179%)" stop-opacity="1"/>
<stop offset="0.375" stop-color="rgb(9.889221%, 62.307739%, 89.660645%)" stop-opacity="1"/>
<stop offset="0.378906" stop-color="rgb(9.686279%, 62.413025%, 89.68811%)" stop-opacity="1"/>
<stop offset="0.382812" stop-color="rgb(9.483337%, 62.518311%, 89.715576%)" stop-opacity="1"/>
<stop offset="0.386719" stop-color="rgb(9.280396%, 62.623596%, 89.741516%)" stop-opacity="1"/>
<stop offset="0.390625" stop-color="rgb(9.077454%, 62.730408%, 89.768982%)" stop-opacity="1"/>
<stop offset="0.394531" stop-color="rgb(8.872986%, 62.835693%, 89.796448%)" stop-opacity="1"/>
<stop offset="0.398438" stop-color="rgb(8.670044%, 62.940979%, 89.823914%)" stop-opacity="1"/>
<stop offset="0.402344" stop-color="rgb(8.467102%, 63.046265%, 89.849854%)" stop-opacity="1"/>
<stop offset="0.40625" stop-color="rgb(8.26416%, 63.153076%, 89.877319%)" stop-opacity="1"/>
<stop offset="0.410156" stop-color="rgb(8.061218%, 63.258362%, 89.904785%)" stop-opacity="1"/>
<stop offset="0.414062" stop-color="rgb(7.858276%, 63.363647%, 89.932251%)" stop-opacity="1"/>
<stop offset="0.417969" stop-color="rgb(7.653809%, 63.468933%, 89.958191%)" stop-opacity="1"/>
<stop offset="0.421875" stop-color="rgb(7.450867%, 63.575745%, 89.985657%)" stop-opacity="1"/>
<stop offset="0.425781" stop-color="rgb(7.247925%, 63.68103%, 90.013123%)" stop-opacity="1"/>
<stop offset="0.429688" stop-color="rgb(7.044983%, 63.786316%, 90.040588%)" stop-opacity="1"/>
<stop offset="0.433594" stop-color="rgb(6.842041%, 63.891602%, 90.066528%)" stop-opacity="1"/>
<stop offset="0.4375" stop-color="rgb(6.639099%, 63.996887%, 90.093994%)" stop-opacity="1"/>
<stop offset="0.441406" stop-color="rgb(6.436157%, 64.102173%, 90.12146%)" stop-opacity="1"/>
<stop offset="0.445312" stop-color="rgb(6.233215%, 64.208984%, 90.148926%)" stop-opacity="1"/>
<stop offset="0.449219" stop-color="rgb(6.030273%, 64.31427%, 90.174866%)" stop-opacity="1"/>
<stop offset="0.453125" stop-color="rgb(5.827332%, 64.419556%, 90.202332%)" stop-opacity="1"/>
<stop offset="0.457031" stop-color="rgb(5.62439%, 64.524841%, 90.229797%)" stop-opacity="1"/>
<stop offset="0.460938" stop-color="rgb(5.421448%, 64.630127%, 90.257263%)" stop-opacity="1"/>
<stop offset="0.464844" stop-color="rgb(5.218506%, 64.735413%, 90.283203%)" stop-opacity="1"/>
<stop offset="0.46875" stop-color="rgb(5.015564%, 64.842224%, 90.310669%)" stop-opacity="1"/>
<stop offset="0.472656" stop-color="rgb(4.812622%, 64.94751%, 90.338135%)" stop-opacity="1"/>
<stop offset="0.476562" stop-color="rgb(4.60968%, 65.052795%, 90.365601%)" stop-opacity="1"/>
<stop offset="0.480469" stop-color="rgb(4.406738%, 65.158081%, 90.391541%)" stop-opacity="1"/>
<stop offset="0.484375" stop-color="rgb(4.205322%, 65.263367%, 90.419006%)" stop-opacity="1"/>
<stop offset="0.488281" stop-color="rgb(4.00238%, 65.368652%, 90.444946%)" stop-opacity="1"/>
<stop offset="0.492188" stop-color="rgb(3.799438%, 65.473938%, 90.472412%)" stop-opacity="1"/>
<stop offset="0.496094" stop-color="rgb(3.596497%, 65.579224%, 90.499878%)" stop-opacity="1"/>
<stop offset="0.5" stop-color="rgb(3.393555%, 65.684509%, 90.527344%)" stop-opacity="1"/>
<stop offset="0.503906" stop-color="rgb(3.190613%, 65.789795%, 90.553284%)" stop-opacity="1"/>
<stop offset="0.507812" stop-color="rgb(2.989197%, 65.895081%, 90.58075%)" stop-opacity="1"/>
<stop offset="0.511719" stop-color="rgb(2.786255%, 66.000366%, 90.608215%)" stop-opacity="1"/>
<stop offset="0.515625" stop-color="rgb(2.583313%, 66.105652%, 90.635681%)" stop-opacity="1"/>
<stop offset="0.519531" stop-color="rgb(2.380371%, 66.210938%, 90.661621%)" stop-opacity="1"/>
<stop offset="0.523438" stop-color="rgb(2.178955%, 66.316223%, 90.689087%)" stop-opacity="1"/>
<stop offset="0.527344" stop-color="rgb(1.976013%, 66.421509%, 90.715027%)" stop-opacity="1"/>
<stop offset="0.53125" stop-color="rgb(1.774597%, 66.526794%, 90.742493%)" stop-opacity="1"/>
<stop offset="0.535156" stop-color="rgb(1.571655%, 66.63208%, 90.769958%)" stop-opacity="1"/>
<stop offset="0.539062" stop-color="rgb(1.370239%, 66.737366%, 90.797424%)" stop-opacity="1"/>
<stop offset="0.542969" stop-color="rgb(1.168823%, 66.841125%, 90.823364%)" stop-opacity="1"/>
<stop offset="0.546875" stop-color="rgb(0.967407%, 66.946411%, 90.85083%)" stop-opacity="1"/>
<stop offset="0.550781" stop-color="rgb(0.764465%, 67.051697%, 90.87677%)" stop-opacity="1"/>
<stop offset="0.554688" stop-color="rgb(0.563049%, 67.156982%, 90.904236%)" stop-opacity="1"/>
<stop offset="0.558594" stop-color="rgb(0.361633%, 67.260742%, 90.930176%)" stop-opacity="1"/>
<stop offset="0.5625" stop-color="rgb(0.161743%, 67.366028%, 90.957642%)" stop-opacity="1"/>
<stop offset="0.625" stop-color="rgb(0.0808716%, 67.407227%, 90.968323%)" stop-opacity="1"/>
<stop offset="0.75" stop-color="rgb(0%, 67.449951%, 90.979004%)" stop-opacity="1"/>
<stop offset="1" stop-color="rgb(0%, 67.449951%, 90.979004%)" stop-opacity="1"/>
</linearGradient>
</defs>

<path fill-rule="nonzero" fill="rgb(10.205078%, 39.208984%, 89.84375%)" fill-opacity="1" d="M 461.664062 239.761719 L 475.976562 239.761719 L 475.976562 341.761719 L 461.664062 341.761719 Z M 412.625 284.730469 L 469.242188 284.730469 L 469.242188 298.339844 L 412.625 298.339844 Z M 403.714844 239.761719 L 418.027344 239.761719 L 418.027344 341.761719 L 403.714844 341.761719 L 403.714844 239.761719 "/>
<path fill-rule="nonzero" fill="rgb(10.205078%, 39.208984%, 89.84375%)" fill-opacity="1" d="M 508.179688 328.148438 L 566.757812 328.148438 L 566.757812 341.761719 L 508.179688 341.761719 Z M 508.179688 284.308594 L 559.039062 284.308594 L 559.039062 297.910156 L 508.179688 297.910156 Z M 508.179688 239.761719 L 566.757812 239.761719 L 566.757812 253.371094 L 508.179688 253.371094 Z M 501.234375 239.761719 L 515.542969 239.761719 L 515.542969 341.761719 L 501.234375 341.761719 L 501.234375 239.761719 "/>
<path fill-rule="nonzero" fill="rgb(10.205078%, 39.208984%, 89.84375%)" fill-opacity="1" d="M 594.609375 305.769531 L 648.28125 305.769531 L 648.28125 319.378906 L 594.609375 319.378906 Z M 614.886719 239.761719 L 627.09375 239.761719 L 664.695312 341.761719 L 649.261719 341.761719 L 620.988281 259.46875 L 592.714844 341.761719 L 577.28125 341.761719 L 614.886719 239.761719 "/>
<path fill-rule="nonzero" fill="rgb(10.205078%, 39.208984%, 89.84375%)" fill-opacity="1" d="M 687.285156 328.148438 L 745.65625 328.148438 L 745.65625 341.761719 L 687.285156 341.761719 Z M 680.132812 239.761719 L 694.441406 239.761719 L 694.441406 341.761719 L 680.132812 341.761719 L 680.132812 239.761719 "/>
<path fill-rule="nonzero" fill="rgb(10.205078%, 39.208984%, 89.84375%)" fill-opacity="1" d="M 773.089844 248.101562 L 787.398438 248.101562 L 787.398438 341.761719 L 773.089844 341.761719 Z M 744.253906 239.761719 L 816.234375 239.761719 L 816.234375 253.371094 L 744.253906 253.371094 L 744.253906 239.761719 "/>
<path fill-rule="nonzero" fill="rgb(10.205078%, 39.208984%, 89.84375%)" fill-opacity="1" d="M 888.214844 239.761719 L 902.527344 239.761719 L 902.527344 341.761719 L 888.214844 341.761719 Z M 839.175781 284.730469 L 895.792969 284.730469 L 895.792969 298.339844 L 839.175781 298.339844 Z M 830.265625 239.761719 L 844.578125 239.761719 L 844.578125 341.761719 L 830.265625 341.761719 L 830.265625 239.761719 "/>
<path fill-rule="nonzero" fill="rgb(10.205078%, 39.208984%, 89.84375%)" fill-opacity="1" d="M 296.640625 504.269531 L 282.328125 504.269531 L 282.328125 402.261719 L 296.640625 402.261719 L 296.640625 504.269531 "/>
<path fill-rule="nonzero" fill="rgb(10.205078%, 39.208984%, 89.84375%)" fill-opacity="1" d="M 321.894531 402.261719 L 334.875 402.261719 L 384.757812 481.121094 L 383.074219 482.941406 L 383.074219 402.261719 L 397.242188 402.261719 L 397.242188 504.199219 L 384.125 504.199219 L 334.382812 426.53125 L 336.066406 424.710938 L 336.066406 504.199219 L 321.894531 504.199219 L 321.894531 402.261719 "/>
<path fill-rule="nonzero" fill="rgb(10.205078%, 39.208984%, 89.84375%)" fill-opacity="1" d="M 445.792969 505.320312 C 445.792969 505.320312 443.59375 504.851562 439.199219 503.921875 C 434.800781 502.980469 430.695312 501.578125 426.886719 499.710938 C 423.074219 497.839844 419.507812 495.5 416.1875 492.691406 L 425.097656 481.75 C 428.976562 485.109375 433.257812 487.640625 437.933594 489.320312 C 442.609375 491.011719 447.6875 491.851562 453.160156 491.851562 C 460.546875 491.851562 466.277344 490.480469 470.347656 487.75 C 474.414062 485.011719 476.449219 481.140625 476.449219 476.128906 L 476.449219 476.058594 C 476.449219 472.511719 475.527344 469.691406 473.679688 467.609375 C 471.832031 465.53125 469.445312 463.988281 466.523438 462.980469 C 463.601562 461.96875 459.824219 461.050781 455.195312 460.210938 C 455.054688 460.160156 454.902344 460.140625 454.738281 460.140625 C 454.574219 460.140625 454.421875 460.121094 454.28125 460.070312 L 453.230469 459.859375 C 446.398438 458.691406 440.847656 457.371094 436.566406 455.890625 C 432.289062 454.421875 428.628906 451.730469 425.585938 447.828125 C 422.546875 443.921875 421.027344 438.371094 421.027344 431.160156 L 421.027344 431.089844 C 421.027344 424.78125 422.441406 419.390625 425.273438 414.921875 C 428.101562 410.460938 432.226562 407.058594 437.65625 404.71875 C 443.078125 402.378906 449.605469 401.210938 457.226562 401.210938 C 460.875 401.210938 464.464844 401.609375 467.996094 402.398438 C 471.527344 403.199219 475.011719 404.378906 478.449219 405.941406 C 481.886719 407.511719 485.265625 409.488281 488.589844 411.871094 L 480.449219 423.238281 C 476.566406 420.378906 472.695312 418.238281 468.839844 416.820312 C 464.980469 415.390625 461.109375 414.679688 457.226562 414.679688 C 450.257812 414.679688 444.84375 416.070312 440.988281 418.851562 C 437.128906 421.628906 435.199219 425.578125 435.199219 430.671875 L 435.199219 430.738281 C 435.199219 434.25 436.191406 437.011719 438.179688 439.019531 C 440.167969 441.03125 442.648438 442.519531 445.617188 443.480469 C 448.585938 444.441406 452.714844 445.429688 458 446.460938 C 458.1875 446.511719 458.363281 446.539062 458.527344 446.558594 C 458.6875 446.589844 458.863281 446.621094 459.050781 446.671875 C 459.285156 446.71875 459.542969 446.761719 459.824219 446.808594 C 460.105469 446.859375 460.359375 446.898438 460.597656 446.949219 C 466.769531 448.210938 471.925781 449.710938 476.066406 451.441406 C 480.203125 453.171875 483.664062 455.960938 486.449219 459.820312 C 489.230469 463.679688 490.621094 468.960938 490.621094 475.640625 L 490.621094 475.78125 C 490.621094 482.011719 489.148438 487.320312 486.203125 491.738281 C 483.257812 496.160156 478.988281 499.53125 473.398438 501.851562 C 467.808594 504.160156 461.0625 505.320312 453.160156 505.320312 C 448.246094 505.320312 445.792969 505.320312 445.792969 505.320312 "/>
<path fill-rule="nonzero" fill="rgb(10.205078%, 39.208984%, 89.84375%)" fill-opacity="1" d="M 523.210938 500.859375 C 517.855469 497.890625 513.773438 493.570312 510.96875 487.890625 C 508.160156 482.199219 506.757812 475.359375 506.757812 467.359375 L 506.757812 402.261719 L 521.070312 402.261719 L 521.070312 467.859375 C 521.070312 475.289062 522.941406 481.050781 526.683594 485.109375 C 530.425781 489.179688 535.710938 491.21875 542.539062 491.21875 C 549.414062 491.21875 554.734375 489.179688 558.496094 485.109375 C 562.261719 481.050781 564.144531 475.289062 564.144531 467.859375 L 564.144531 402.261719 L 578.457031 402.261719 L 578.457031 467.359375 C 578.457031 475.359375 577.054688 482.199219 574.246094 487.890625 C 571.441406 493.570312 567.347656 497.890625 561.972656 500.859375 C 556.59375 503.839844 550.113281 505.320312 542.539062 505.320312 C 535.007812 505.320312 528.566406 503.839844 523.210938 500.859375 "/>
<path fill-rule="nonzero" fill="rgb(10.205078%, 39.208984%, 89.84375%)" fill-opacity="1" d="M 634.933594 457.960938 L 649.175781 454.738281 L 675.273438 504.269531 L 658.296875 504.269531 Z M 607.152344 447.511719 L 641.949219 447.511719 C 644.660156 447.511719 647.070312 446.859375 649.175781 445.550781 C 651.28125 444.238281 652.90625 442.378906 654.050781 439.96875 C 655.195312 437.558594 655.769531 434.789062 655.769531 431.660156 C 655.769531 428.519531 655.195312 425.75 654.050781 423.339844 C 652.90625 420.929688 651.289062 419.070312 649.210938 417.761719 C 647.128906 416.460938 644.710938 415.800781 641.949219 415.800781 L 607.152344 415.800781 L 607.152344 402.191406 L 641.386719 402.191406 C 647.28125 402.191406 652.460938 403.410156 656.929688 405.839844 C 661.394531 408.269531 664.855469 411.71875 667.3125 416.191406 C 669.765625 420.648438 670.996094 425.808594 670.996094 431.660156 C 670.996094 437.5 669.753906 442.660156 667.277344 447.121094 C 664.796875 451.589844 661.324219 455.039062 656.859375 457.46875 C 652.390625 459.910156 647.234375 461.121094 641.386719 461.121094 L 607.152344 461.121094 Z M 600.90625 402.191406 L 615.21875 402.191406 L 615.21875 504.269531 L 600.90625 504.269531 L 600.90625 402.191406 "/>
<path fill-rule="nonzero" fill="rgb(10.205078%, 39.208984%, 89.84375%)" fill-opacity="1" d="M 698.566406 468.28125 L 752.234375 468.28125 L 752.234375 481.890625 L 698.566406 481.890625 Z M 718.839844 402.261719 L 731.046875 402.261719 L 768.652344 504.269531 L 753.21875 504.269531 L 724.945312 421.96875 L 696.671875 504.269531 L 681.238281 504.269531 L 718.839844 402.261719 "/>
<path fill-rule="nonzero" fill="rgb(10.205078%, 39.208984%, 89.84375%)" fill-opacity="1" d="M 784.085938 402.261719 L 797.066406 402.261719 L 846.945312 481.121094 L 845.261719 482.941406 L 845.261719 402.261719 L 859.433594 402.261719 L 859.433594 504.199219 L 846.316406 504.199219 L 796.574219 426.53125 L 798.257812 424.710938 L 798.257812 504.199219 L 784.085938 504.199219 L 784.085938 402.261719 "/>
<path fill-rule="nonzero" fill="rgb(10.205078%, 39.208984%, 89.84375%)" fill-opacity="1" d="M 907.492188 505.320312 C 907.492188 505.320312 904.8125 503.75 899.457031 500.621094 C 894.101562 497.488281 889.953125 493.039062 887.007812 487.289062 C 884.058594 481.539062 882.585938 474.871094 882.585938 467.289062 L 882.585938 439.300781 C 882.585938 431.730469 884.058594 425.058594 887.007812 419.308594 C 889.953125 413.558594 894.101562 409.101562 899.457031 405.941406 C 904.8125 402.789062 911.023438 401.210938 918.085938 401.210938 C 923.929688 401.210938 929.308594 402.460938 934.222656 404.960938 C 939.132812 407.460938 943.234375 411.011719 946.535156 415.589844 C 949.832031 420.171875 952.0625 425.480469 953.234375 431.519531 L 938.570312 431.519531 C 937.683594 428.328125 936.195312 425.488281 934.117188 422.988281 C 932.035156 420.488281 929.589844 418.558594 926.785156 417.199219 C 923.980469 415.851562 921.078125 415.171875 918.085938 415.171875 C 913.921875 415.171875 910.273438 416.171875 907.140625 418.179688 C 904.007812 420.199219 901.574219 423.011719 899.84375 426.640625 C 898.113281 430.261719 897.25 434.488281 897.25 439.300781 L 897.25 467.289062 C 897.25 472.070312 898.113281 476.269531 899.84375 479.921875 C 901.574219 483.570312 904.007812 486.390625 907.140625 488.378906 C 910.273438 490.371094 913.921875 491.359375 918.085938 491.359375 C 921.125 491.359375 924.035156 490.730469 926.820312 489.460938 C 929.601562 488.199219 932.035156 486.328125 934.117188 483.851562 C 936.195312 481.371094 937.683594 478.429688 938.570312 475.011719 L 953.234375 475.011719 C 952.0625 481.050781 949.820312 486.359375 946.496094 490.941406 C 943.175781 495.519531 939.0625 499.058594 934.152344 501.570312 C 929.238281 504.070312 923.882812 505.320312 918.085938 505.320312 C 911.023438 505.320312 907.492188 505.320312 907.492188 505.320312 "/>
<path fill-rule="nonzero" fill="rgb(10.205078%, 39.208984%, 89.84375%)" fill-opacity="1" d="M 979.121094 490.660156 L 1037.699219 490.660156 L 1037.699219 504.269531 L 979.121094 504.269531 Z M 979.121094 446.808594 L 1029.980469 446.808594 L 1029.980469 460.421875 L 979.121094 460.421875 Z M 979.121094 402.261719 L 1037.699219 402.261719 L 1037.699219 415.871094 L 979.121094 415.871094 Z M 972.175781 402.261719 L 986.488281 402.261719 L 986.488281 504.269531 L 972.175781 504.269531 L 972.175781 402.261719 "/>
<path fill-rule="nonzero" fill="rgb(87.889099%, 92.576599%, 98.4375%)" fill-opacity="1" d="M 1166.429688 1845.46875 C 973.984375 1845.46875 802.550781 1760.640625 798.59375 1528.621094 C 793.390625 1223.621094 996.234375 1091.789062 1148.28125 993.773438 C 1307.230469 891.300781 1572.28125 853.769531 1744.28125 833.769531 L 1744.28125 893.769531 C 1787.449219 837.949219 1776.28125 829.769531 1770.921875 795.320312 C 1766.699219 768.25 1778.21875 757.800781 1799.480469 757.800781 C 1861.949219 757.800781 2008.5 848 2087.390625 872.21875 C 2240.308594 919.160156 2372.28125 993.773438 2496.28125 1177.769531 C 2531.199219 1229.589844 2527.699219 1301.199219 2520.28125 1381.769531 C 2516.53125 1422.5 2512.21875 1462.980469 2468.28125 1513.769531 C 2373.191406 1623.71875 2205.25 1668.511719 2044.980469 1668.511719 C 2021.839844 1668.511719 1998.859375 1667.578125 1976.28125 1665.769531 C 1925.101562 1661.679688 1876.148438 1657.398438 1828.511719 1657.398438 C 1741.96875 1657.398438 1659.75 1671.53125 1576.429688 1726.570312 C 1470.128906 1796.800781 1312.25 1845.46875 1166.429688 1845.46875 M 1911.019531 966.007812 L 1911 966.058594 L 1911.019531 966.007812 "/>
<path fill-rule="nonzero" fill="rgb(8.227539%, 21.556091%, 57.617188%)" fill-opacity="1" d="M 2680.308594 1016.308594 L 2685.898438 1013.058594 L 2685.390625 1194.089844 L 2679.800781 1197.339844 L 2680.308594 1016.308594 "/>
<path fill-rule="nonzero" fill="rgb(8.227539%, 21.556091%, 57.617188%)" fill-opacity="1" d="M 2430.488281 872.078125 L 2436.078125 868.828125 L 2685.898438 1013.058594 L 2680.308594 1016.308594 L 2430.488281 872.078125 "/>
<path fill-rule="nonzero" fill="rgb(18.431091%, 43.920898%, 100%)" fill-opacity="1" d="M 2680.308594 1016.308594 L 2679.800781 1197.339844 L 2429.980469 1053.101562 L 2430.488281 872.078125 L 2680.308594 1016.308594 "/>
<path fill-rule="nonzero" fill="rgb(18.431091%, 43.920898%, 100%)" fill-opacity="1" d="M 2478.519531 928.511719 L 2541.929688 965.121094 L 2541.929688 1068.398438 L 2478.519531 1031.800781 L 2478.519531 928.511719 "/>
<path fill-rule="nonzero" fill="rgb(100%, 100%, 100%)" fill-opacity="1" d="M 2555.691406 1077.308594 L 2633.460938 1122.21875 L 2633.460938 1130.230469 L 2555.691406 1085.328125 L 2555.691406 1077.308594 "/>
<path fill-rule="nonzero" fill="rgb(100%, 100%, 100%)" fill-opacity="1" d="M 2618.910156 1083.46875 L 2555.691406 1046.96875 L 2555.691406 1054.988281 L 2618.910156 1091.488281 L 2618.910156 1083.46875 "/>
<path fill-rule="nonzero" fill="rgb(100%, 100%, 100%)" fill-opacity="1" d="M 2618.910156 1039.679688 L 2555.691406 1003.179688 L 2555.691406 1011.199219 L 2618.910156 1047.699219 L 2618.910156 1039.679688 "/>
<path fill-rule="nonzero" fill="rgb(100%, 100%, 100%)" fill-opacity="1" d="M 2636.351562 1064.660156 L 2555.691406 1018.128906 L 2555.691406 1026.148438 L 2636.351562 1072.679688 L 2636.351562 1064.660156 "/>
<path fill-rule="nonzero" fill="rgb(100%, 100%, 100%)" fill-opacity="1" d="M 2555.691406 1062.75 L 2658.761719 1122.378906 L 2658.761719 1130.390625 L 2555.691406 1070.769531 L 2555.691406 1062.75 "/>
<path fill-rule="nonzero" fill="rgb(100%, 100%, 100%)" fill-opacity="1" d="M 2555.691406 987.617188 L 2658.761719 1047.238281 L 2658.761719 1055.261719 L 2555.691406 995.632812 L 2555.691406 987.617188 "/>
<path fill-rule="nonzero" fill="rgb(100%, 100%, 100%)" fill-opacity="1" d="M 2515.351562 1043.308594 C 2515.351562 1039.640625 2515.351562 1034.800781 2515.351562 1030.21875 C 2521.699219 1027.238281 2525.949219 1018.078125 2526.050781 1004.851562 C 2527.46875 1005.339844 2527.671875 995.007812 2529.78125 991.710938 C 2524.339844 980.835938 2528 976.742188 2525.808594 970.730469 C 2519.871094 954.433594 2508.128906 950.308594 2498.519531 948.214844 C 2494.039062 947.238281 2495.5 941.746094 2495.800781 948.214844 C 2476.769531 949.574219 2474.929688 969.929688 2480.121094 978.742188 C 2480.300781 991.730469 2484.371094 1005.371094 2490.46875 1015.519531 C 2490.46875 1020.199219 2490.46875 1025.179688 2490.46875 1028.941406 C 2490.46875 1038.578125 2468.519531 1042.421875 2468.519531 1042.421875 L 2500.160156 1060.679688 L 2505.671875 1063.871094 L 2537.300781 1082.128906 C 2537.300781 1082.128906 2515.351562 1052.949219 2515.351562 1043.308594 "/>
<path fill-rule="nonzero" fill="rgb(18.431091%, 43.920898%, 100%)" fill-opacity="1" d="M 2531.210938 1102.589844 L 2451.101562 1059.289062 L 2464.761719 1034.011719 L 2544.878906 1077.308594 L 2531.210938 1102.589844 "/>
<path fill-rule="nonzero" fill="rgb(26.660156%, 37.255859%, 66.209412%)" fill-opacity="1" d="M 2543.921875 911.941406 L 2544.269531 787.769531 L 2553.460938 782.429688 L 2553.109375 906.601562 L 2543.921875 911.941406 "/>
<path fill-rule="nonzero" fill="rgb(26.660156%, 37.255859%, 66.209412%)" fill-opacity="1" d="M 2544.269531 787.769531 L 2436.210938 725.390625 L 2445.410156 720.039062 L 2553.460938 782.429688 L 2544.269531 787.769531 "/>
<path fill-rule="nonzero" fill="rgb(34.910583%, 55.271912%, 100%)" fill-opacity="1" d="M 2543.921875 911.941406 L 2435.859375 849.550781 L 2436.210938 725.390625 L 2544.269531 787.769531 L 2543.921875 911.941406 "/>
<path fill-rule="nonzero" fill="rgb(100%, 100%, 100%)" fill-opacity="1" d="M 2475.171875 789.378906 L 2475.171875 784.460938 L 2496.621094 796.839844 L 2496.621094 801.761719 L 2500 803.71875 L 2500 794.75 L 2471.789062 778.46875 L 2471.789062 787.429688 L 2475.171875 789.378906 "/>
<path fill-rule="nonzero" fill="rgb(100%, 100%, 100%)" fill-opacity="1" d="M 2464.691406 783.328125 L 2456.300781 778.488281 L 2456.300781 776.03125 L 2464.691406 780.871094 L 2464.691406 783.328125 "/>
<path fill-rule="nonzero" fill="rgb(100%, 100%, 100%)" fill-opacity="1" d="M 2515.488281 812.660156 L 2507.101562 807.808594 L 2507.101562 805.359375 L 2515.488281 810.199219 L 2515.488281 812.660156 "/>
<path fill-rule="nonzero" fill="rgb(100%, 100%, 100%)" fill-opacity="1" d="M 2496.738281 835.160156 L 2490.289062 831.441406 L 2490.289062 838.871094 L 2481.5 833.800781 L 2481.5 826.359375 L 2475.058594 822.640625 L 2475.058594 812.5 L 2481.5 816.21875 L 2481.5 808.78125 L 2490.289062 813.859375 L 2490.289062 821.289062 L 2496.738281 825.011719 Z M 2485.898438 806.199219 C 2477.480469 801.339844 2470.628906 805.300781 2470.628906 815.019531 C 2470.628906 824.730469 2477.480469 836.589844 2485.890625 841.449219 C 2494.308594 846.308594 2501.160156 842.359375 2501.160156 832.640625 C 2501.160156 822.921875 2494.308594 811.058594 2485.898438 806.199219 "/>
<path fill-rule="nonzero" fill="rgb(100%, 100%, 100%)" fill-opacity="1" d="M 2485.890625 842.859375 C 2476.800781 837.621094 2469.410156 824.808594 2469.410156 814.308594 C 2469.410156 803.808594 2476.800781 799.539062 2485.898438 804.789062 C 2494.988281 810.039062 2502.378906 822.851562 2502.378906 833.351562 C 2502.378906 843.839844 2494.988281 848.109375 2485.890625 842.859375 Z M 2451.921875 777.160156 L 2451.921875 831.269531 L 2519.871094 870.5 L 2519.871094 816.378906 L 2451.921875 777.160156 "/>
<path fill-rule="nonzero" fill="rgb(100%, 100%, 100%)" fill-opacity="1" d="M 2454.890625 832.988281 L 2454.890625 782.289062 L 2519.871094 819.808594 L 2519.871094 816.378906 L 2451.921875 777.160156 L 2451.921875 831.269531 L 2454.890625 832.988281 "/>
<path fill-rule="nonzero" fill="rgb(100%, 100%, 100%)" fill-opacity="1" d="M 2516.898438 818.101562 L 2516.898438 865.359375 L 2451.921875 827.851562 L 2451.921875 831.269531 L 2519.871094 870.5 L 2519.871094 819.808594 L 2516.898438 818.101562 "/>
<path fill-rule="nonzero" fill="rgb(26.660156%, 37.255859%, 66.209412%)" fill-opacity="1" d="M 2547.621094 748 L 2547.949219 631.578125 L 2556.570312 626.570312 L 2556.25 742.988281 L 2547.621094 748 "/>
<path fill-rule="nonzero" fill="rgb(26.660156%, 37.255859%, 66.209412%)" fill-opacity="1" d="M 2547.949219 631.578125 L 2446.640625 573.089844 L 2455.261719 568.078125 L 2556.570312 626.570312 L 2547.949219 631.578125 "/>
<path fill-rule="nonzero" fill="rgb(34.910583%, 55.271912%, 100%)" fill-opacity="1" d="M 2547.621094 748 L 2446.308594 689.5 L 2446.640625 573.089844 L 2547.949219 631.578125 L 2547.621094 748 "/>
<path fill-rule="nonzero" fill="rgb(100%, 100%, 100%)" fill-opacity="1" d="M 2497.699219 630.328125 C 2498.828125 632.449219 2520.359375 672.890625 2520.449219 687.109375 C 2520.539062 701.308594 2510.550781 707.121094 2498.121094 700.050781 C 2485.628906 692.839844 2475.589844 675.679688 2475.511719 661.550781 C 2475.410156 647.320312 2496.589844 631.179688 2497.699219 630.328125 "/>
<path fill-rule="nonzero" fill="rgb(26.660156%, 37.255859%, 66.209412%)" fill-opacity="1" d="M 2682.5 820.808594 L 2682.828125 704.390625 L 2691.449219 699.378906 L 2691.128906 815.800781 L 2682.5 820.808594 "/>
<path fill-rule="nonzero" fill="rgb(26.660156%, 37.255859%, 66.209412%)" fill-opacity="1" d="M 2682.828125 704.390625 L 2581.519531 645.898438 L 2590.140625 640.890625 L 2691.449219 699.378906 L 2682.828125 704.390625 "/>
<path fill-rule="nonzero" fill="rgb(34.910583%, 55.271912%, 100%)" fill-opacity="1" d="M 2682.5 820.808594 L 2581.191406 762.308594 L 2581.519531 645.898438 L 2682.828125 704.390625 L 2682.5 820.808594 "/>
<path fill-rule="nonzero" fill="rgb(100%, 100%, 100%)" fill-opacity="1" d="M 2637.101562 696.328125 C 2639.128906 697.988281 2640.839844 700 2642.199219 702.308594 L 2642.21875 702.351562 C 2646.199219 709.53125 2645.519531 713.890625 2644.289062 721.800781 C 2644.050781 723.28125 2643.789062 724.96875 2643.53125 726.820312 C 2643.359375 728.121094 2642.800781 730.660156 2642.769531 730.769531 L 2641.148438 729.410156 C 2641.160156 729.390625 2641.71875 726.828125 2641.890625 725.589844 C 2642.148438 723.730469 2642.421875 722.039062 2642.648438 720.539062 C 2643.871094 712.710938 2644.429688 709.128906 2641.03125 702.988281 C 2639.898438 701.078125 2638.46875 699.410156 2636.769531 698.019531 C 2635.988281 697.378906 2633.710938 696.101562 2632.898438 695.660156 L 2632.859375 693.710938 C 2633.171875 693.878906 2636 695.429688 2637.101562 696.328125 "/>
<path fill-rule="nonzero" fill="rgb(100%, 100%, 100%)" fill-opacity="1" d="M 2611.78125 684.769531 L 2611.800781 684.761719 C 2613.160156 684.011719 2614.878906 683.988281 2616.890625 684.671875 C 2618 685.039062 2620.820312 686.761719 2621.140625 686.949219 L 2621.101562 688.839844 C 2620.28125 688.351562 2618.011719 687 2617.230469 686.738281 C 2615.53125 686.160156 2614.101562 686.179688 2612.96875 686.800781 C 2609.570312 689.011719 2610.128906 693.238281 2611.351562 702.46875 C 2611.578125 704.238281 2611.851562 706.230469 2612.109375 708.398438 C 2612.28125 709.828125 2612.839844 713.039062 2612.851562 713.070312 L 2611.230469 712.558594 C 2611.199219 712.421875 2610.640625 709.238281 2610.460938 707.730469 C 2610.210938 705.578125 2609.941406 703.589844 2609.710938 701.839844 C 2608.480469 692.5 2607.800781 687.359375 2611.78125 684.769531 "/>
<path fill-rule="nonzero" fill="rgb(100%, 100%, 100%)" fill-opacity="1" d="M 2627.929688 736.398438 L 2627.929688 759.269531 C 2627.929688 765.398438 2632.25 772.871094 2637.550781 775.941406 C 2642.859375 779 2647.179688 776.511719 2647.179688 770.378906 L 2647.179688 762.058594 C 2647.179688 761.929688 2647.179688 761.789062 2647.171875 761.660156 L 2647.179688 761.660156 L 2647.179688 755.699219 C 2647.179688 747.851562 2652.710938 744.660156 2659.5 748.578125 C 2665.78125 752.210938 2670.960938 760.648438 2671.71875 768.101562 L 2668.988281 766.519531 C 2668.261719 760.808594 2664.289062 754.460938 2659.5 751.699219 C 2654.199219 748.640625 2649.878906 751.128906 2649.878906 757.261719 L 2649.878906 765.570312 C 2649.878906 765.710938 2649.878906 765.851562 2649.878906 765.988281 L 2649.878906 765.980469 L 2649.878906 771.941406 C 2649.878906 779.789062 2644.351562 782.980469 2637.550781 779.058594 C 2630.761719 775.128906 2625.230469 765.558594 2625.230469 757.710938 L 2625.230469 734.839844 L 2627.929688 736.398438 "/>
<path fill-rule="nonzero" fill="rgb(100%, 100%, 100%)" fill-opacity="1" d="M 2623.71875 690.378906 C 2623.71875 690.820312 2623.398438 690.949219 2623.019531 690.660156 L 2621.238281 689.300781 C 2620.859375 689.011719 2620.550781 688.398438 2620.550781 687.949219 L 2620.550781 687.140625 C 2620.550781 686.699219 2620.859375 686.449219 2621.238281 686.601562 L 2623.019531 687.289062 C 2623.398438 687.441406 2623.71875 687.921875 2623.71875 688.371094 L 2623.71875 690.378906 "/>
<path fill-rule="nonzero" fill="rgb(100%, 100%, 100%)" fill-opacity="1" d="M 2632.640625 695.53125 C 2632.640625 695.980469 2632.960938 696.46875 2633.339844 696.621094 L 2635.121094 697.308594 C 2635.5 697.460938 2635.808594 697.210938 2635.808594 696.761719 L 2635.808594 695.960938 C 2635.808594 695.511719 2635.5 694.898438 2635.121094 694.609375 L 2633.339844 693.238281 C 2632.960938 692.949219 2632.640625 693.078125 2632.640625 693.53125 L 2632.640625 695.53125 "/>
<path fill-rule="nonzero" fill="rgb(100%, 100%, 100%)" fill-opacity="1" d="M 2610.140625 711.660156 L 2610.339844 711.601562 L 2613.101562 712.378906 C 2613.28125 712.429688 2613.460938 712.648438 2613.511719 712.878906 L 2613.539062 713.050781 C 2614.421875 717.449219 2615.140625 720.730469 2615.5 722.058594 C 2616.75 726.609375 2618.851562 729.761719 2622.371094 732.261719 C 2622.628906 732.03125 2623.011719 732.011719 2623.488281 732.28125 L 2629.679688 735.859375 C 2630.179688 736.148438 2630.570312 736.640625 2630.828125 737.21875 C 2634.730469 739.140625 2637 738.519531 2638.320312 735.230469 C 2638.890625 733.820312 2640.070312 729.289062 2640.308594 728.359375 C 2640.359375 728.179688 2640.550781 728.171875 2640.71875 728.320312 L 2643.480469 730.730469 C 2643.660156 730.890625 2643.769531 731.171875 2643.71875 731.351562 C 2643.710938 731.398438 2642.320312 736.828125 2641.621094 738.570312 C 2639.738281 743.238281 2636.089844 744.070312 2630.480469 741.101562 C 2629.949219 741.890625 2629.019531 742.140625 2628.140625 741.628906 L 2625.019531 739.828125 C 2624.128906 739.320312 2623.179688 737.960938 2622.660156 736.539062 C 2617.441406 733.050781 2614.011719 728.148438 2612.210938 721.589844 C 2611.609375 719.441406 2610.550781 714.199219 2610.121094 712.039062 L 2610.101562 711.941406 C 2610.078125 711.828125 2610.089844 711.730469 2610.140625 711.660156 "/>
<path fill-rule="nonzero" fill="rgb(100%, 100%, 100%)" fill-opacity="1" d="M 2668.089844 769.109375 C 2668.089844 767.589844 2669.160156 766.96875 2670.46875 767.730469 C 2671.789062 768.488281 2672.859375 770.339844 2672.859375 771.859375 C 2672.859375 773.378906 2671.789062 774 2670.46875 773.238281 C 2669.160156 772.480469 2668.089844 770.628906 2668.089844 769.109375 Z M 2666.480469 768.179688 C 2666.480469 770.730469 2668.269531 773.828125 2670.46875 775.101562 C 2672.679688 776.378906 2674.480469 775.339844 2674.480469 772.800781 C 2674.480469 770.238281 2672.679688 767.140625 2670.46875 765.859375 C 2668.269531 764.589844 2666.480469 765.621094 2666.480469 768.179688 "/>
<path fill-rule="nonzero" fill="rgb(26.660156%, 37.255859%, 66.209412%)" fill-opacity="1" d="M 2677.199219 977.992188 L 2677.53125 861.578125 L 2686.148438 856.570312 L 2685.828125 972.984375 L 2677.199219 977.992188 "/>
<path fill-rule="nonzero" fill="rgb(26.660156%, 37.255859%, 66.209412%)" fill-opacity="1" d="M 2677.53125 861.578125 L 2576.21875 803.078125 L 2584.839844 798.070312 L 2686.148438 856.570312 L 2677.53125 861.578125 "/>
<path fill-rule="nonzero" fill="rgb(34.910583%, 55.271912%, 100%)" fill-opacity="1" d="M 2677.199219 977.992188 L 2575.890625 919.5 L 2576.21875 803.078125 L 2677.53125 861.578125 L 2677.199219 977.992188 "/>
<path fill-rule="nonzero" fill="rgb(100%, 100%, 100%)" fill-opacity="1" d="M 2623.320312 885.261719 C 2623.140625 883.710938 2622.859375 882.140625 2622.449219 880.570312 C 2622.058594 878.949219 2621.570312 877.339844 2621.230469 875.71875 C 2620.910156 874.289062 2620.808594 872.988281 2620.808594 871.648438 C 2620.808594 870.46875 2620.808594 869.210938 2620.46875 867.910156 C 2620.128906 866.671875 2619.441406 865.519531 2618.800781 864.558594 C 2618.070312 863.46875 2617.191406 862.488281 2616.320312 862.101562 C 2615.488281 861.699219 2614.859375 862.25 2614.210938 862.53125 C 2613.75 862.609375 2613.328125 862.738281 2612.910156 862.878906 C 2612.320312 863.078125 2611.78125 863.359375 2611.261719 863.699219 L 2611.179688 863.730469 L 2611.089844 863.800781 C 2610.121094 864.460938 2609.261719 865.320312 2608.449219 866.339844 C 2607.089844 868 2605.941406 869.921875 2605.078125 872.308594 C 2604.199219 874.71875 2603.640625 877.460938 2603.378906 880.460938 C 2603.089844 883.929688 2602.960938 887.480469 2603.03125 891.171875 C 2603.089844 894.710938 2602.46875 897.75 2602.269531 901.089844 C 2602.210938 902.109375 2600.558594 902.078125 2600.929688 903.25 C 2601.289062 904.441406 2603.808594 906.140625 2604.539062 906.511719 C 2605.460938 906.949219 2606.320312 907.148438 2607.109375 907 C 2608.019531 906.859375 2608.839844 906.519531 2609.628906 906.019531 C 2610.511719 905.449219 2611.308594 904.679688 2612.238281 904.21875 C 2613.109375 903.769531 2614.058594 903.679688 2615.039062 903.601562 C 2616.128906 903.511719 2617.109375 903.078125 2618.148438 902.851562 C 2618.628906 902.738281 2619.128906 902.691406 2619.660156 902.71875 C 2620.140625 902.738281 2620.601562 902.761719 2620.96875 902.441406 C 2621.308594 902.199219 2621.550781 901.730469 2621.75 901.28125 C 2622.011719 900.671875 2622.269531 900.058594 2622.480469 899.390625 C 2622.910156 898.109375 2623.191406 896.671875 2623.371094 895.148438 C 2623.71875 892.089844 2623.699219 888.710938 2623.320312 885.261719 "/>
<path fill-rule="nonzero" fill="rgb(100%, 100%, 100%)" fill-opacity="1" d="M 2625.949219 885.878906 C 2625.730469 884.308594 2625.390625 882.699219 2624.890625 881.070312 C 2624.378906 879.410156 2623.78125 877.71875 2623.359375 876.078125 C 2622.960938 874.558594 2622.820312 873.25 2622.820312 871.921875 C 2622.820312 870.738281 2622.839844 869.488281 2622.410156 868.140625 C 2621.988281 866.859375 2621.140625 865.621094 2620.328125 864.539062 C 2619.429688 863.359375 2618.328125 862.261719 2617.261719 861.730469 C 2616.21875 861.238281 2615.449219 861.660156 2614.621094 861.871094 C 2614.058594 861.890625 2613.539062 861.960938 2613.011719 862.03125 C 2612.289062 862.148438 2611.609375 862.351562 2610.96875 862.609375 L 2610.871094 862.640625 L 2610.75 862.699219 C 2609.558594 863.210938 2608.480469 863.96875 2607.46875 864.851562 C 2605.78125 866.320312 2604.351562 868.089844 2603.28125 870.359375 C 2602.191406 872.628906 2601.5 875.300781 2601.179688 878.28125 C 2600.808594 881.710938 2600.640625 885.199219 2600.730469 888.921875 C 2600.820312 892.460938 2600.03125 895.421875 2599.800781 898.738281 C 2599.730469 899.769531 2599.800781 900.910156 2600.238281 902.121094 C 2600.699219 903.371094 2601.628906 904.300781 2602.539062 904.769531 C 2603.691406 905.351562 2604.820312 905.378906 2605.808594 905.351562 C 2606.949219 905.339844 2607.96875 905.101562 2608.929688 904.710938 C 2610.03125 904.261719 2611.019531 903.609375 2612.179688 903.269531 C 2613.269531 902.980469 2614.460938 903.019531 2615.671875 903.070312 C 2617.011719 903.109375 2618.230469 902.839844 2619.519531 902.738281 C 2620.140625 902.710938 2620.75 902.75 2621.398438 902.851562 C 2622 902.921875 2622.570312 902.980469 2623.050781 902.761719 C 2623.449219 902.550781 2623.75 902.121094 2623.988281 901.691406 C 2624.320312 901.121094 2624.648438 900.558594 2624.921875 899.929688 C 2625.449219 898.699219 2625.789062 897.28125 2626.019531 895.769531 C 2626.441406 892.78125 2626.421875 889.398438 2625.949219 885.878906 "/>
<path fill-rule="nonzero" fill="rgb(100%, 100%, 100%)" fill-opacity="1" d="M 2625.871094 885.351562 C 2625.660156 883.960938 2625.339844 882.53125 2624.890625 881.070312 C 2624.378906 879.410156 2623.78125 877.71875 2623.359375 876.078125 C 2622.960938 874.558594 2622.820312 873.25 2622.820312 871.921875 C 2622.820312 870.738281 2622.839844 869.488281 2622.410156 868.140625 C 2621.988281 866.859375 2621.140625 865.621094 2620.328125 864.539062 C 2619.429688 863.359375 2618.328125 862.261719 2617.261719 861.730469 C 2616.21875 861.238281 2615.449219 861.660156 2614.621094 861.871094 C 2614.058594 861.890625 2613.539062 861.960938 2613.011719 862.03125 C 2612.289062 862.148438 2611.609375 862.351562 2610.96875 862.609375 L 2610.871094 862.640625 L 2610.75 862.699219 C 2609.558594 863.210938 2608.480469 863.96875 2607.46875 864.851562 C 2605.78125 866.320312 2604.351562 868.089844 2603.28125 870.359375 C 2602.210938 872.601562 2600.761719 874.820312 2600.429688 877.710938 C 2601.121094 879.75 2602.859375 882.140625 2604.269531 884.070312 C 2607.46875 888.53125 2611.351562 892.269531 2612.910156 897.371094 C 2613.5 899.339844 2614 902.640625 2614.171875 904.558594 C 2618.921875 905.179688 2616.511719 885.109375 2625.871094 885.351562 "/>
<path fill-rule="nonzero" fill="rgb(100%, 100%, 100%)" fill-opacity="1" d="M 2657.089844 935.289062 C 2656.640625 936.011719 2655.710938 935.851562 2654.78125 935.25 C 2653.648438 934.5 2652.511719 933.199219 2651.519531 932.019531 C 2650.390625 930.679688 2649.371094 929.261719 2648.398438 927.738281 C 2647.300781 926.011719 2646.308594 924.199219 2645.160156 922.511719 C 2645.039062 922.378906 2644.949219 922.230469 2644.851562 922.078125 C 2643.839844 920.691406 2642.75 919.46875 2641.660156 918.230469 C 2640.328125 916.71875 2639.101562 915.019531 2637.808594 913.421875 C 2637.308594 912.800781 2636.800781 912.230469 2636.269531 911.660156 C 2636.148438 911.550781 2636.050781 911.429688 2635.941406 911.328125 C 2635.351562 910.710938 2634.769531 910.101562 2634.289062 909.320312 C 2633.96875 908.800781 2633.730469 908.210938 2633.53125 907.648438 C 2633.460938 907.480469 2633.398438 907.308594 2633.351562 907.148438 C 2633.179688 906.648438 2633.011719 906.171875 2632.851562 905.691406 C 2632.699219 905.230469 2632.558594 904.761719 2632.429688 904.308594 C 2631.898438 902.460938 2631.550781 900.648438 2631.320312 898.871094 C 2630.898438 895.390625 2630.921875 892.019531 2631.390625 889.050781 C 2631.578125 887.859375 2631.890625 886.75 2632.320312 885.761719 C 2632.359375 885.660156 2632.410156 885.589844 2632.449219 885.480469 C 2632.960938 884.410156 2633.550781 883.429688 2633.980469 882.28125 C 2634.378906 881.230469 2634.519531 880.078125 2634.519531 878.75 C 2634.519531 877.570312 2634.5 876.300781 2634.929688 875.449219 C 2635.351562 874.660156 2636.199219 874.410156 2637.011719 874.269531 C 2637.910156 874.140625 2639.011719 874.328125 2640.070312 875.039062 C 2641.109375 875.769531 2641.890625 877.101562 2642.710938 878.269531 C 2643.269531 878.929688 2643.789062 879.609375 2644.308594 880.300781 C 2645.039062 881.261719 2645.71875 882.25 2646.371094 883.261719 L 2646.46875 883.410156 L 2646.578125 883.601562 C 2647.46875 885.019531 2648.289062 886.488281 2649.070312 888 L 2649.101562 888.050781 C 2649.359375 888.558594 2649.609375 889.070312 2649.871094 889.589844 C 2651.539062 893.019531 2652.988281 896.46875 2654.058594 899.988281 C 2654.878906 902.671875 2655.480469 905.308594 2655.859375 907.871094 C 2655.988281 908.710938 2656.089844 909.539062 2656.160156 910.359375 C 2656.308594 911.878906 2656.410156 913.390625 2656.5 914.878906 C 2656.621094 917.128906 2656.660156 919.339844 2656.609375 921.53125 C 2656.519531 924.960938 2657.300781 928.839844 2657.539062 932.441406 C 2657.609375 933.539062 2657.539062 934.609375 2657.089844 935.289062 "/>
<path fill-rule="nonzero" fill="rgb(100%, 100%, 100%)" fill-opacity="1" d="M 2656.878906 913.871094 C 2656.769531 914.179688 2656.648438 914.53125 2656.5 914.878906 C 2656.050781 915.96875 2655.441406 917.171875 2655.058594 918.078125 C 2653.871094 920.738281 2651.988281 923.238281 2648.929688 922.851562 C 2647.589844 922.679688 2646.21875 922.421875 2644.851562 922.078125 C 2644.570312 922.019531 2644.289062 921.941406 2644.011719 921.851562 C 2643.199219 920.800781 2642.339844 919.820312 2641.460938 918.839844 C 2640.738281 918.019531 2638.390625 914.710938 2636.269531 911.660156 C 2635.210938 910.148438 2634.230469 908.699219 2633.53125 907.648438 C 2633.460938 907.480469 2633.398438 907.308594 2633.351562 907.148438 C 2633.179688 906.648438 2633.011719 906.171875 2632.851562 905.691406 C 2633.390625 905.191406 2633.949219 904.699219 2634.519531 904.238281 C 2636.480469 902.5 2636.578125 898.730469 2635.988281 894.660156 C 2635.5 891.660156 2634.140625 888.550781 2632.320312 885.761719 C 2632.230469 885.621094 2632.148438 885.519531 2632.070312 885.390625 L 2632.078125 885.359375 C 2632.601562 884.25 2633.210938 883.25 2633.648438 882.058594 C 2634.050781 880.988281 2634.179688 879.808594 2634.191406 878.441406 C 2634.191406 877.230469 2634.171875 875.929688 2634.601562 875.058594 C 2635.03125 874.238281 2635.898438 873.988281 2636.730469 873.878906 C 2637.640625 873.730469 2638.761719 873.890625 2639.851562 874.648438 C 2640.898438 875.378906 2641.699219 876.738281 2642.53125 877.929688 C 2643.078125 878.589844 2643.640625 879.300781 2644.160156 880 C 2644.910156 880.980469 2645.601562 882 2646.261719 883.039062 L 2646.359375 883.179688 L 2646.46875 883.359375 C 2647.398438 884.871094 2648.25 886.421875 2649.070312 888 L 2649.101562 888.050781 C 2649.339844 888.53125 2649.570312 889 2649.808594 889.480469 C 2651.519531 893 2652.988281 896.519531 2654.089844 900.128906 C 2654.628906 901.941406 2655.308594 905.070312 2655.859375 907.871094 C 2656.410156 910.71875 2656.839844 913.269531 2656.878906 913.871094 "/>
<path fill-rule="nonzero" fill="rgb(100%, 100%, 100%)" fill-opacity="1" d="M 2631.011719 874.96875 L 2627.128906 872.710938 L 2627.128906 850.871094 L 2631.011719 853.128906 L 2631.011719 874.96875 "/>
<path fill-rule="nonzero" fill="rgb(100%, 100%, 100%)" fill-opacity="1" d="M 2627.839844 862.980469 C 2627.660156 862.769531 2627.460938 862.941406 2627.621094 863.199219 C 2628.230469 864.171875 2627.980469 865.378906 2627.839844 866.101562 C 2627.660156 866.910156 2627.449219 867.769531 2627.03125 868.339844 C 2625.820312 870.039062 2623.699219 870.441406 2621.789062 870.921875 C 2620.148438 871.320312 2618.199219 871.359375 2617.238281 872.960938 C 2616.699219 873.878906 2616.5 875.230469 2616.320312 876.488281 C 2616.101562 878 2616.03125 879.628906 2616.03125 881.300781 C 2616.019531 883.671875 2616.351562 886.210938 2615.929688 888.320312 C 2615.550781 890.320312 2614.519531 891.660156 2613.011719 892.199219 C 2611.660156 892.660156 2610.128906 892.699219 2608.800781 893.199219 C 2607.429688 893.679688 2606.511719 894.761719 2606.128906 896.539062 C 2606.089844 896.789062 2606.429688 897.070312 2606.480469 896.828125 C 2606.738281 895.621094 2607.25 894.699219 2608.058594 894.121094 C 2608.78125 893.609375 2609.691406 893.421875 2610.578125 893.261719 C 2612.46875 892.890625 2614.378906 892.601562 2615.480469 890.828125 C 2616.609375 889.039062 2616.558594 886.359375 2616.449219 883.609375 C 2616.371094 881.808594 2616.371094 880.019531 2616.558594 878.371094 C 2616.738281 876.890625 2617 875.390625 2617.609375 874.300781 C 2618.308594 872.988281 2619.820312 872.960938 2621.128906 872.730469 C 2622.839844 872.421875 2624.578125 872.171875 2626.078125 871.378906 C 2627.328125 870.738281 2628.371094 869.710938 2628.648438 867.851562 C 2628.820312 866.691406 2629.109375 864.371094 2627.839844 862.980469 "/>
<path fill-rule="nonzero" fill="rgb(100%, 100%, 100%)" fill-opacity="1" d="M 2623.578125 896.539062 C 2623.441406 895.898438 2623.148438 895.230469 2622.96875 894.589844 C 2622.789062 893.960938 2622.699219 893.359375 2622.628906 892.769531 C 2622.519531 891.699219 2622.640625 890.738281 2622.769531 889.839844 C 2623.070312 888 2623.589844 886.238281 2623.339844 884.050781 C 2623.128906 882.269531 2622.210938 880.589844 2621.101562 879.019531 C 2619.921875 877.328125 2617.589844 874.761719 2617.78125 872.839844 C 2617.800781 872.710938 2617.609375 872.488281 2617.558594 872.621094 C 2616.898438 874.03125 2618.699219 876.578125 2619.789062 878.089844 C 2621.058594 879.859375 2622.300781 881.550781 2622.691406 883.648438 C 2623.128906 886.070312 2622.46875 888.039062 2622.25 890.058594 C 2622.148438 890.96875 2622.128906 891.929688 2622.28125 892.96875 C 2622.441406 894.03125 2622.75 895.511719 2623.421875 896.570312 C 2623.488281 896.679688 2623.609375 896.679688 2623.578125 896.539062 "/>
<path fill-rule="nonzero" fill="rgb(100%, 100%, 100%)" fill-opacity="1" d="M 2616.179688 882.519531 C 2616.179688 882.410156 2616.050781 882.351562 2616.050781 882.460938 C 2615.929688 883.769531 2615.761719 885.03125 2615.039062 885.761719 C 2614.441406 886.320312 2613.558594 886.371094 2612.628906 886.171875 C 2610.488281 885.699219 2608.289062 884.070312 2606.101562 883.058594 L 2606.101562 883.140625 C 2607.28125 883.960938 2608.480469 884.640625 2609.648438 885.28125 C 2610.769531 885.878906 2611.921875 886.429688 2612.988281 886.609375 C 2613.921875 886.789062 2614.769531 886.660156 2615.328125 886.039062 C 2616.039062 885.300781 2616.261719 883.949219 2616.179688 882.519531 "/>
<path fill-rule="nonzero" fill="rgb(100%, 100%, 100%)" fill-opacity="1" d="M 2618.851562 870.339844 C 2618.230469 869.53125 2617.449219 868.980469 2616.730469 868.558594 C 2615.230469 867.679688 2613.539062 867.199219 2612.308594 867.5 C 2611.140625 867.78125 2610.609375 869.261719 2609.898438 870.25 C 2609.199219 871.21875 2607.988281 872.839844 2606.320312 871.300781 L 2606.308594 871.359375 C 2606.890625 871.910156 2607.390625 872.199219 2607.941406 872.210938 C 2608.589844 872.210938 2609.101562 871.851562 2609.53125 871.441406 C 2610.460938 870.570312 2611.121094 869.289062 2612.140625 868.550781 C 2612.570312 868.269531 2613.148438 868.300781 2613.710938 868.359375 C 2614.480469 868.441406 2615.289062 868.679688 2616.121094 869.058594 C 2616.890625 869.421875 2617.679688 869.910156 2618.390625 870.679688 C 2618.691406 870.988281 2618.929688 871.339844 2619.140625 871.761719 C 2619.210938 871.890625 2619.519531 872.550781 2619.691406 872.429688 C 2620.070312 872.078125 2619.21875 870.820312 2618.851562 870.339844 "/>
<path fill-rule="nonzero" fill="rgb(100%, 100%, 100%)" fill-opacity="1" d="M 2639.890625 895.730469 C 2641.371094 894.511719 2642.789062 893.019531 2642.820312 890.230469 C 2642.859375 887.671875 2641.539062 884.660156 2640 882.078125 C 2638.679688 879.839844 2637.140625 877.78125 2635.648438 875.730469 C 2634.828125 874.621094 2633.910156 873.601562 2633 872.609375 C 2631.761719 871.230469 2630.519531 869.941406 2629.230469 868.671875 C 2628.96875 868.421875 2627.480469 866.769531 2627.429688 867.480469 C 2627.421875 867.601562 2627.511719 867.738281 2627.609375 867.808594 L 2627.679688 867.898438 L 2627.878906 868.171875 C 2628.109375 868.441406 2628.339844 868.71875 2628.578125 869 C 2629.261719 869.820312 2629.929688 870.640625 2630.601562 871.449219 C 2631.851562 872.980469 2633.160156 874.410156 2634.410156 875.921875 C 2635.148438 876.820312 2635.820312 877.839844 2636.488281 878.800781 C 2637.390625 880.078125 2638.261719 881.339844 2639.070312 882.679688 C 2640.621094 885.238281 2641.878906 888.109375 2641.78125 890.609375 C 2641.699219 892.609375 2640.570312 893.910156 2639.53125 894.871094 C 2638.429688 895.898438 2637.21875 896.710938 2636.320312 897.988281 C 2635.820312 898.699219 2635.421875 899.539062 2635.171875 900.519531 C 2634.949219 901.289062 2634.839844 902.171875 2635.140625 903.230469 C 2635.628906 904.96875 2637.050781 906.539062 2637.828125 908.21875 C 2638.019531 908.609375 2638.429688 908.558594 2638.230469 908.148438 C 2637.679688 906.980469 2636.960938 905.929688 2636.289062 904.800781 C 2635.960938 904.238281 2635.679688 903.648438 2635.519531 903.058594 C 2635.308594 902.21875 2635.480469 901.539062 2635.628906 900.898438 C 2636.25 898.210938 2638.238281 897.101562 2639.890625 895.730469 "/>
<path fill-rule="nonzero" fill="rgb(100%, 100%, 100%)" fill-opacity="1" d="M 2652.46875 927.570312 C 2651.859375 925.96875 2651.808594 924.421875 2651.648438 922.941406 C 2651.511719 921.46875 2651.351562 919.96875 2651.101562 918.449219 C 2650.96875 917.769531 2650.839844 917.078125 2650.578125 916.378906 C 2650.308594 915.601562 2649.910156 914.851562 2649.550781 914.078125 C 2648.789062 912.460938 2647.699219 910.980469 2646.769531 909.441406 C 2644.820312 906.199219 2644.21875 902.761719 2644.039062 899.660156 C 2643.96875 898.21875 2643.921875 896.789062 2643.929688 895.390625 C 2643.941406 894.171875 2643.941406 892.949219 2643.730469 891.609375 C 2643.460938 889.910156 2642.890625 888.269531 2641.769531 886.679688 C 2641.660156 886.53125 2641.539062 886.691406 2641.628906 886.839844 C 2642.429688 888.101562 2642.628906 889.578125 2642.648438 890.761719 C 2642.679688 892.011719 2642.558594 893.160156 2642.480469 894.351562 C 2642.320312 897.171875 2642.300781 900.199219 2642.949219 903.421875 C 2643.308594 905.171875 2643.941406 907.058594 2644.820312 908.800781 C 2645.621094 910.359375 2646.628906 911.808594 2647.570312 913.28125 C 2648.011719 913.988281 2648.53125 914.628906 2648.960938 915.359375 C 2649.398438 916.078125 2649.730469 916.738281 2650 917.519531 C 2650.539062 919.121094 2650.738281 920.730469 2650.929688 922.230469 C 2651.148438 923.898438 2651.128906 925.949219 2652.148438 927.679688 C 2652.328125 927.980469 2652.578125 927.871094 2652.46875 927.570312 "/>
<path fill-rule="nonzero" fill="rgb(100%, 100%, 100%)" fill-opacity="1" d="M 2655.03125 916.019531 C 2654.761719 915.070312 2654.089844 914 2653.660156 913.03125 C 2653.199219 911.988281 2652.910156 911 2652.699219 909.988281 C 2652.371094 908.429688 2652.140625 906.761719 2651.050781 905.289062 C 2649.910156 903.710938 2648.558594 902.601562 2647.230469 901.621094 C 2646.519531 901.109375 2645.800781 900.628906 2645.101562 900.179688 C 2644.480469 899.789062 2643.78125 899.25 2643.160156 899.019531 C 2642.960938 898.929688 2642.808594 899.199219 2643.058594 899.480469 C 2643.578125 900.039062 2644.210938 900.441406 2644.761719 900.828125 C 2645.421875 901.300781 2646.089844 901.761719 2646.75 902.230469 C 2648.078125 903.191406 2649.421875 904.230469 2650.609375 905.660156 C 2651.78125 907.070312 2651.929688 909.011719 2652.339844 910.558594 C 2652.578125 911.480469 2652.941406 912.390625 2653.371094 913.300781 C 2653.789062 914.179688 2654.269531 915.300781 2654.871094 916.089844 C 2654.941406 916.171875 2655.058594 916.148438 2655.03125 916.019531 "/>
<path fill-rule="nonzero" fill="rgb(100%, 100%, 100%)" fill-opacity="1" d="M 2650.890625 897.429688 C 2650.46875 896.511719 2649.890625 895.640625 2649.359375 894.789062 C 2648.738281 893.789062 2648.171875 892.769531 2647.71875 891.699219 C 2646.960938 889.890625 2646.480469 888.109375 2645.308594 886.421875 C 2644.449219 885.179688 2643.351562 884.179688 2642.289062 883.671875 C 2641.421875 883.25 2640.070312 883.269531 2640.101562 884.480469 C 2640.109375 884.621094 2640.25 884.808594 2640.339844 884.769531 C 2640.699219 884.648438 2640.910156 884.300781 2641.320312 884.261719 C 2641.699219 884.230469 2642.191406 884.429688 2642.640625 884.691406 C 2643.570312 885.21875 2644.621094 886.320312 2645.339844 887.421875 C 2646.398438 889.011719 2646.859375 890.761719 2647.699219 892.429688 C 2648.589844 894.148438 2649.761719 895.808594 2650.808594 897.449219 L 2650.890625 897.429688 "/>
<path fill-rule="nonzero" fill="rgb(78.90625%, 83.201599%, 88.28125%)" fill-opacity="1" d="M 1911 966.058594 L 1911.019531 966.007812 L 1911 966.058594 "/>
<path fill-rule="nonzero" fill="rgb(87.109375%, 65.039062%, 21.166992%)" fill-opacity="1" d="M 1884.96875 968.824219 L 1884.96875 962.617188 L 1893.148438 962.121094 L 1891.46875 969.488281 L 1889.058594 970.285156 L 1884.96875 968.824219 "/>
<path fill-rule="nonzero" fill="rgb(14.501953%, 19.213867%, 65.429688%)" fill-opacity="1" d="M 2362.609375 1146.769531 L 2189.148438 1046.628906 L 2158.398438 1064.488281 L 2319.621094 1157.570312 L 1570.929688 1592.660156 L 1029.011719 1279.789062 L 1777.699219 844.699219 L 1938.921875 937.78125 L 1969.671875 919.910156 L 1796.210938 819.761719 C 1786.25 814.019531 1770.011719 814.019531 1760.121094 819.761719 L 983.5625 1271.050781 C 973.664062 1276.800781 973.722656 1286.210938 983.679688 1291.949219 L 1550.078125 1618.96875 C 1560.039062 1624.710938 1576.269531 1624.71875 1586.171875 1618.96875 L 2362.730469 1167.679688 C 2372.621094 1161.929688 2372.558594 1152.519531 2362.609375 1146.769531 "/>
<path fill-rule="nonzero" fill="rgb(35.301208%, 58.789062%, 100%)" fill-opacity="1" d="M 1586.171875 1608.128906 C 1576.269531 1613.890625 1560.03125 1613.871094 1550.070312 1608.128906 L 983.679688 1281.121094 C 973.722656 1275.371094 973.660156 1265.960938 983.558594 1260.210938 L 1760.121094 808.929688 C 1770.011719 803.179688 1786.261719 803.179688 1796.210938 808.929688 L 1969.671875 909.070312 L 1938.929688 926.949219 L 1914.828125 940.957031 C 1914.089844 941.378906 1914.101562 942.070312 1914.828125 942.496094 L 2131.621094 1067.671875 C 2132.359375 1068.089844 2133.558594 1068.089844 2134.289062 1067.671875 L 2158.398438 1053.660156 L 2185.511719 1032.148438 L 2362.609375 1135.941406 C 2372.558594 1141.679688 2372.621094 1151.101562 2362.730469 1156.839844 "/>
<path fill-rule="nonzero" fill="rgb(100%, 100%, 100%)" fill-opacity="1" d="M 2318.339844 1146.589844 L 1784.871094 838.578125 L 1047.851562 1266.890625 L 1581.328125 1574.890625 L 2318.339844 1146.589844 "/>
<path fill-rule="nonzero" fill="rgb(80.076599%, 90.234375%, 100%)" fill-opacity="1" d="M 2001.710938 1226.941406 L 1643.070312 1019.878906 C 1636.839844 1016.28125 1626.671875 1016.28125 1620.46875 1019.878906 C 1614.269531 1023.480469 1614.308594 1029.371094 1620.550781 1032.96875 L 1979.179688 1240.03125 C 1985.421875 1243.628906 1995.589844 1243.628906 2001.78125 1240.03125 C 2007.980469 1236.429688 2007.941406 1230.539062 2001.710938 1226.941406 "/>
<path fill-rule="nonzero" fill="rgb(80.076599%, 90.234375%, 100%)" fill-opacity="1" d="M 1953.96875 1240.730469 L 1606.96875 1045.550781 C 1587.828125 1035.339844 1583.78125 1032.589844 1577.578125 1036.191406 C 1571.378906 1039.800781 1571.421875 1045.691406 1577.660156 1049.289062 L 1936.289062 1256.339844 C 1942.53125 1259.941406 1952.699219 1259.949219 1958.898438 1256.339844 C 1965.089844 1252.738281 1965.058594 1246.851562 1958.820312 1243.25 L 1953.96875 1240.730469 "/>
<path fill-rule="nonzero" fill="rgb(80.076599%, 90.234375%, 100%)" fill-opacity="1" d="M 1822.949219 1214.488281 L 1557.300781 1061.121094 C 1551.058594 1057.519531 1540.890625 1057.519531 1534.691406 1061.121094 C 1528.5 1064.71875 1528.53125 1070.609375 1534.769531 1074.210938 L 1800.421875 1227.589844 C 1806.648438 1231.191406 1816.828125 1231.191406 1823.03125 1227.589844 C 1829.21875 1223.988281 1829.191406 1218.089844 1822.949219 1214.488281 "/>
<path fill-rule="nonzero" fill="rgb(80.076599%, 90.234375%, 100%)" fill-opacity="1" d="M 1851.859375 1305.410156 L 1493.230469 1098.351562 C 1486.988281 1094.75 1476.820312 1094.75 1470.621094 1098.351562 C 1464.429688 1101.949219 1464.460938 1107.839844 1470.699219 1111.441406 L 1829.328125 1318.5 C 1835.570312 1322.101562 1845.738281 1322.101562 1851.941406 1318.5 C 1858.128906 1314.898438 1858.101562 1309.011719 1851.859375 1305.410156 "/>
<path fill-rule="nonzero" fill="rgb(80.076599%, 90.234375%, 100%)" fill-opacity="1" d="M 1808.96875 1330.328125 L 1450.339844 1123.28125 C 1444.101562 1119.679688 1433.929688 1119.679688 1427.730469 1123.28125 C 1421.539062 1126.878906 1421.570312 1132.769531 1427.808594 1136.371094 L 1786.441406 1343.429688 C 1792.679688 1347.03125 1802.851562 1347.03125 1809.050781 1343.429688 C 1815.238281 1339.828125 1815.210938 1333.929688 1808.96875 1330.328125 "/>
<path fill-rule="nonzero" fill="rgb(80.076599%, 90.234375%, 100%)" fill-opacity="1" d="M 1673.101562 1301.578125 L 1407.449219 1148.199219 C 1401.210938 1144.601562 1391.039062 1144.601562 1384.839844 1148.199219 C 1378.648438 1151.800781 1378.679688 1157.699219 1384.910156 1161.300781 L 1650.570312 1314.671875 C 1656.800781 1318.269531 1666.980469 1318.269531 1673.171875 1314.671875 C 1679.378906 1311.070312 1679.339844 1305.179688 1673.101562 1301.578125 "/>
<path fill-rule="nonzero" fill="rgb(80.076599%, 90.234375%, 100%)" fill-opacity="1" d="M 1432.140625 1249.261719 L 1331.039062 1190.878906 C 1325.621094 1187.761719 1316.78125 1187.761719 1311.390625 1190.878906 C 1306.011719 1194.011719 1306.039062 1199.128906 1311.460938 1202.261719 L 1412.558594 1260.628906 C 1417.988281 1263.769531 1426.828125 1263.769531 1432.210938 1260.640625 C 1437.601562 1257.511719 1437.570312 1252.390625 1432.140625 1249.261719 "/>
<path fill-rule="nonzero" fill="rgb(80.076599%, 90.234375%, 100%)" fill-opacity="1" d="M 1400.109375 1267.871094 L 1299.011719 1209.5 C 1293.589844 1206.371094 1284.75 1206.371094 1279.359375 1209.5 C 1273.96875 1212.628906 1274.011719 1217.75 1279.429688 1220.878906 L 1380.53125 1279.25 C 1385.960938 1282.378906 1394.789062 1282.378906 1400.179688 1279.25 C 1405.570312 1276.121094 1405.539062 1271 1400.109375 1267.871094 "/>
<path fill-rule="nonzero" fill="rgb(88.28125%, 88.28125%, 88.28125%)" fill-opacity="1" d="M 1642.261719 1440.058594 L 1632.488281 1436.5 L 1634.789062 1437.828125 C 1636.898438 1439.039062 1639.53125 1439.789062 1642.261719 1440.058594 "/>
<path fill-rule="nonzero" fill="rgb(88.28125%, 88.28125%, 88.28125%)" fill-opacity="1" d="M 1544.261719 1399.980469 L 1535.480469 1394.910156 C 1534.890625 1395.320312 1534.320312 1395.730469 1533.761719 1396.148438 L 1533.761719 1396.160156 L 1544.261719 1399.980469 "/>
<path fill-rule="nonzero" fill="rgb(18.431091%, 43.920898%, 100%)" fill-opacity="1" d="M 2213.488281 620.660156 C 2107.210938 560.519531 2003.300781 457.949219 1916.210938 327.261719 L 1915.03125 326.578125 C 1827.941406 356.710938 1724.03125 339.289062 1617.738281 276.699219 L 1613.679688 274.308594 L 1619.421875 472.890625 C 1639.589844 780.71875 1744.578125 914.699219 1913.558594 1200.890625 L 1917.671875 1203.269531 C 2086.660156 1112.199219 2191.648438 1099.449219 2211.808594 814.910156 L 2217.550781 622.949219 L 2213.488281 620.660156 "/>
<path fill-rule="nonzero" fill="rgb(14.501953%, 19.213867%, 65.429688%)" fill-opacity="1" d="M 2316.171875 533.738281 C 2209.890625 473.609375 2105.980469 371.039062 2018.890625 240.351562 L 2017.710938 239.671875 C 1930.621094 269.800781 1826.710938 252.390625 1720.429688 189.789062 L 1716.371094 187.398438 L 1614.820312 274.980469 L 1617.75 276.699219 C 1724.03125 339.289062 1827.941406 356.710938 1915.03125 326.578125 L 1916.210938 327.261719 C 2003.300781 457.949219 2107.210938 560.519531 2213.488281 620.660156 L 2217.550781 622.949219 L 2211.820312 814.910156 C 2198.648438 1000.628906 2149.328125 1070.550781 2069.699219 1122.039062 C 2169.199219 1063.28125 2299.699219 936.746094 2314.5 728 L 2320.230469 536.039062 L 2316.171875 533.738281 "/>
<path fill-rule="nonzero" fill="rgb(14.501953%, 19.213867%, 65.429688%)" fill-opacity="1" d="M 2320.230469 536.039062 L 2316.171875 533.738281 C 2209.890625 473.609375 2105.980469 371.039062 2018.890625 240.351562 L 2017.710938 239.671875 L 1915.03125 326.578125 L 1916.210938 327.261719 C 2003.300781 457.949219 2107.210938 560.519531 2213.488281 620.660156 L 2217.550781 622.949219 L 2320.230469 536.039062 "/>
<path fill-rule="nonzero" fill="rgb(14.501953%, 19.213867%, 65.429688%)" fill-opacity="1" d="M 2217.550781 622.949219 L 2211.820312 814.910156 C 2198.648438 1000.628906 2149.328125 1070.550781 2069.699219 1122.039062 C 2169.199219 1063.28125 2299.699219 936.746094 2314.5 728 L 2320.230469 536.039062 L 2217.550781 622.949219 "/>
<path fill-rule="nonzero" fill="rgb(100%, 100%, 100%)" fill-opacity="1" d="M 2100.359375 770.890625 C 2087.25 952.253906 2039.679688 977.160156 1925.039062 1034.949219 L 1918.160156 1023.539062 C 1802.660156 831.941406 1744.671875 735.761719 1730.808594 527.859375 L 1728.71875 454.75 C 1774.050781 471.179688 1818.308594 479.480469 1860.738281 479.480469 C 1875.628906 479.480469 1890.390625 478.429688 1904.789062 476.378906 C 1966.160156 557.339844 2032.800781 624.261719 2103.210938 675.628906 Z M 1915.621094 449.238281 C 1850.460938 462.210938 1778.128906 451.328125 1702.691406 417.21875 L 1705.929688 529.519531 C 1720.191406 743.441406 1779.289062 841.488281 1896.800781 1036.410156 C 1902.949219 1046.621094 1909.21875 1057.050781 1915.621094 1067.671875 C 1922.011719 1064.429688 1928.261719 1061.28125 1934.410156 1058.171875 C 2051.929688 998.925781 2111.039062 969.117188 2125.289062 771.628906 L 2128.539062 663.078125 C 2053.089844 610.078125 1980.769531 537.441406 1915.621094 449.238281 "/>
<path fill-rule="nonzero" fill="rgb(18.431091%, 43.920898%, 100%)" fill-opacity="1" d="M 2217.660156 617.679688 C 2111.371094 557.539062 2007.46875 454.980469 1920.378906 324.289062 L 1919.199219 323.609375 C 1832.109375 353.730469 1728.199219 336.308594 1621.921875 273.71875 L 1617.851562 271.328125 L 1618.140625 281.238281 C 1723.449219 342.511719 1826.320312 359.429688 1912.648438 329.558594 L 1913.820312 330.238281 C 2000.910156 460.929688 2104.828125 563.5 2211.109375 623.628906 L 2215.171875 625.929688 L 2209.429688 817.890625 C 2198.941406 965.929688 2165.441406 1040.339844 2111.949219 1090.539062 C 2169.261719 1040.269531 2205.070312 965.929688 2215.988281 811.929688 L 2221.71875 619.96875 L 2217.660156 617.679688 "/>
<path fill-rule="nonzero" fill="rgb(100%, 100%, 100%)" fill-opacity="1" d="M 1881.109375 849.46875 L 1881.449219 727.199219 L 1920.789062 749.910156 L 1920.441406 872.179688 L 1881.109375 849.46875 "/>
<path fill-rule="nonzero" fill="rgb(100%, 100%, 100%)" fill-opacity="1" d="M 1881.109375 849.46875 L 1889.101562 849.5 L 1889.410156 741.039062 L 1912.769531 754.519531 L 1912.480469 858.351562 L 1885.101562 842.539062 L 1881.109375 849.46875 L 1889.101562 849.5 L 1881.109375 849.46875 L 1877.109375 856.398438 L 1928.398438 886.019531 L 1928.800781 745.300781 L 1873.488281 713.371094 L 1873.089844 854.089844 L 1877.109375 856.398438 L 1881.109375 849.46875 "/>
<path fill-rule="nonzero" fill="rgb(100%, 100%, 100%)" fill-opacity="1" d="M 2015.210938 759.160156 L 2015.078125 804.359375 L 1920.789062 749.910156 L 1881.449219 727.199219 L 1787.160156 672.769531 L 1787.289062 627.570312 L 1881.578125 682.011719 L 1920.910156 704.710938 L 2015.210938 759.160156 "/>
<path fill-rule="nonzero" fill="rgb(100%, 100%, 100%)" fill-opacity="1" d="M 2015.210938 759.160156 L 2007.210938 759.128906 L 2007.121094 790.519531 L 1924.789062 742.980469 L 1885.449219 720.28125 L 1795.179688 668.160156 L 1795.25 641.398438 L 1877.578125 688.929688 L 1916.910156 711.640625 L 2011.210938 766.078125 L 2015.210938 759.160156 L 2007.210938 759.128906 L 2015.210938 759.160156 L 2019.210938 752.230469 L 1924.910156 697.789062 L 1885.578125 675.078125 L 1779.328125 613.738281 L 1779.148438 677.378906 L 1877.449219 734.128906 L 1916.789062 756.839844 L 2023.039062 818.191406 L 2023.21875 754.539062 L 2019.210938 752.230469 L 2015.210938 759.160156 "/>
<path fill-rule="nonzero" fill="rgb(100%, 100%, 100%)" fill-opacity="1" d="M 1881.851562 587.589844 L 1921.179688 610.300781 L 1920.910156 704.710938 L 1881.578125 682.011719 L 1881.851562 587.589844 "/>
<path fill-rule="nonzero" fill="rgb(100%, 100%, 100%)" fill-opacity="1" d="M 1881.851562 587.589844 L 1877.851562 594.519531 L 1913.171875 614.910156 L 1912.949219 690.878906 L 1889.589844 677.390625 L 1889.851562 587.609375 L 1881.851562 587.589844 L 1877.851562 594.519531 L 1881.851562 587.589844 L 1873.851562 587.570312 L 1873.570312 686.621094 L 1928.878906 718.550781 L 1929.191406 605.691406 L 1873.890625 573.761719 L 1873.851562 587.570312 L 1881.851562 587.589844 "/>
<path fill-rule="nonzero" fill="rgb(35.301208%, 58.789062%, 100%)" fill-opacity="1" d="M 2066.390625 1657.480469 L 1899.5 1560.839844 C 1894.019531 1557.660156 1891.460938 1553.378906 1891.640625 1548.929688 L 1891.609375 1548.941406 L 1891.671875 1524.71875 L 1900.960938 1535.601562 C 1901.558594 1535.199219 1902.160156 1534.800781 1902.820312 1534.421875 L 2244.21875 1337.949219 C 2257.78125 1330.148438 2278.269531 1329.320312 2289.988281 1336.109375 L 2454.53125 1431.398438 C 2457.859375 1427.75 2464.839844 1420.050781 2464.839844 1420.050781 L 2464.761719 1443.738281 C 2465.011719 1449.078125 2461.199219 1454.769531 2453.550781 1459.171875 L 2112.148438 1655.648438 C 2098.601562 1663.449219 2078.109375 1664.269531 2066.390625 1657.480469 "/>
<path fill-rule="nonzero" fill="rgb(35.301208%, 58.789062%, 100%)" fill-opacity="1" d="M 2244.21875 1337.949219 C 2257.78125 1330.148438 2278.269531 1329.320312 2289.988281 1336.109375 L 2454.53125 1431.398438 C 2457.859375 1427.75 2464.839844 1420.050781 2464.839844 1420.050781 L 2464.761719 1443.738281 C 2465.011719 1449.078125 2461.210938 1454.761719 2453.550781 1459.171875 L 2112.148438 1655.648438 C 2105.078125 1659.71875 2096.121094 1661.871094 2087.511719 1662.050781 L 2087.828125 1427.949219 L 2244.21875 1337.949219 "/>
<path fill-rule="nonzero" fill="rgb(35.301208%, 58.789062%, 100%)" fill-opacity="1" d="M 2456.941406 1408.410156 L 2290.050781 1311.769531 C 2278.339844 1304.980469 2257.851562 1305.800781 2244.289062 1313.601562 L 1902.890625 1510.078125 C 1889.339844 1517.878906 1887.851562 1529.699219 1899.570312 1536.488281 L 2066.460938 1633.128906 C 2078.179688 1639.921875 2098.671875 1639.101562 2112.21875 1631.300781 L 2453.621094 1434.820312 C 2467.179688 1427.019531 2468.660156 1415.199219 2456.941406 1408.410156 "/>
<g clip-path="url(#clip-0)">
<g clip-path="url(#clip-1)">
<g clip-path="url(#clip-2)">
<path fill-rule="nonzero" fill="url(#linear-pattern-0)" d="M 2465.070312 1421.691406 L 2465.070312 1642.511719 L 1890.898438 1642.511719 L 1890.898438 1421.691406 Z M 2465.070312 1421.691406 "/>
</g>
</g>
</g>
<path fill-rule="nonzero" fill="rgb(100%, 100%, 100%)" fill-opacity="1" d="M 2444.089844 1412.21875 L 2283.730469 1319.351562 C 2275.019531 1314.308594 2259.789062 1314.921875 2249.710938 1320.71875 L 1913.160156 1514.398438 C 1903.089844 1520.199219 1901.980469 1528.988281 1910.691406 1534.039062 L 2071.050781 1626.898438 C 2079.761719 1631.941406 2094.988281 1631.328125 2105.070312 1625.539062 L 2441.621094 1431.851562 C 2451.691406 1426.050781 2452.800781 1417.261719 2444.089844 1412.21875 "/>
<path fill-rule="nonzero" fill="rgb(18.431091%, 43.920898%, 100%)" fill-opacity="1" d="M 2255.148438 1426.328125 C 2255.148438 1426.328125 2350.699219 1419.351562 2338.640625 1462.238281 C 2323.378906 1516.46875 2154.890625 1484.230469 2154.890625 1484.230469 C 2154.890625 1484.230469 2099.03125 1386.941406 2192.980469 1378.140625 C 2267.25 1371.171875 2255.148438 1426.328125 2255.148438 1426.328125 "/>
<path fill-rule="nonzero" fill="rgb(100%, 100%, 100%)" fill-opacity="1" d="M 2178.058594 1471.160156 L 2236.128906 1448.710938 L 2207.589844 1476.710938 L 2252.390625 1464.640625 L 2244.070312 1477.058594 L 2261.46875 1487.109375 L 2266.578125 1484.171875 L 2252.488281 1476.03125 L 2265.609375 1456.46875 L 2225.609375 1467.25 L 2258.421875 1435.089844 L 2197 1458.820312 L 2213.910156 1439.609375 L 2188.621094 1444.460938 L 2221.359375 1412.238281 L 2171.980469 1429.671875 L 2155.949219 1420.28125 L 2150.820312 1423.199219 L 2170.859375 1434.96875 L 2200.539062 1424.46875 L 2172.679688 1451.941406 L 2199.511719 1446.78125 L 2178.058594 1471.160156 "/>
<path fill-rule="nonzero" fill="rgb(78.90625%, 89.84375%, 99.21875%)" fill-opacity="1" d="M 2145.101562 1548.570312 L 2049.789062 1493.53125 C 2044.679688 1490.589844 2036.339844 1490.589844 2031.269531 1493.53125 C 2026.191406 1496.480469 2026.21875 1501.308594 2031.328125 1504.261719 L 2126.640625 1559.289062 C 2131.761719 1562.25 2140.101562 1562.25 2145.171875 1559.300781 C 2150.238281 1556.351562 2150.21875 1551.519531 2145.101562 1548.570312 "/>
<path fill-rule="nonzero" fill="rgb(78.90625%, 89.84375%, 99.21875%)" fill-opacity="1" d="M 2114.910156 1566.109375 L 2019.589844 1511.078125 C 2014.480469 1508.128906 2006.140625 1508.128906 2001.070312 1511.078125 C 1995.988281 1514.039062 1996.019531 1518.859375 2001.128906 1521.808594 L 2096.449219 1576.839844 C 2101.558594 1579.789062 2109.890625 1579.800781 2114.96875 1576.851562 C 2120.050781 1573.898438 2120.019531 1569.070312 2114.910156 1566.109375 "/>
</svg>
