<?xml version="1.0" encoding="UTF-8"?>
<svg xmlns="http://www.w3.org/2000/svg" xmlns:xlink="http://www.w3.org/1999/xlink" width="499.2pt" height="114.6pt" viewBox="0 0 499.2 114.6" version="1.1">
<defs>
<clipPath id="clip1">
  <path d="M 0 0 L 499.199219 0 L 499.199219 114.601563 L 0 114.601563 Z M 0 0 "/>
</clipPath>
</defs>
<g id="surface1">
<g clip-path="url(#clip1)" clip-rule="nonzero">
<path style=" stroke:none;fill-rule:evenodd;fill:rgb(0%,14.501953%,0%);fill-opacity:1;" d="M 465.058594 -0.0351563 L 499.238281 -0.0351563 L 499.238281 114.574219 L 465.058594 114.574219 Z M 339.671875 114.003906 L 375.226563 114.003906 L 380.132813 97.515625 L 415.871094 97.515625 L 420.328125 114.003906 L 455.328125 114.003906 L 415.835938 -0.0351563 L 379.179688 -0.0351563 Z M 387.648438 72.050781 L 408.050781 72.050781 L 398.273438 38.515625 Z M 227.425781 -0.0351563 L 261.347656 -0.0351563 L 261.347656 41.503906 L 297.460938 41.503906 L 297.460938 -0.0351563 L 331.382813 -0.0351563 L 331.382813 114 L 297.460938 114 L 297.460938 71.867188 L 261.347656 71.867188 L 261.347656 114 L 227.425781 114 Z M 111.800781 -0.0351563 L 144.972656 -0.0351563 L 144.972656 87.191406 L 181.613281 87.191406 L 181.613281 -0.0351563 L 214.890625 -0.0351563 L 214.890625 100.234375 C 214.890625 107.921875 208.605469 114.210938 200.917969 114.210938 L 125.464844 114.210938 C 117.949219 114.210938 111.800781 108.058594 111.800781 100.546875 Z M 11.195313 -0.0351563 L 87.914063 -0.0351563 C 94.050781 -0.0351563 99.070313 4.984375 99.070313 11.117188 L 99.070313 37.066406 L 65.535156 37.066406 L 65.535156 25.089844 L 33.550781 25.089844 L 33.550781 35.339844 L 95.234375 62.128906 C 97.984375 63.621094 99 66.171875 99.070313 68.664063 L 99.070313 102.429688 C 99.070313 108.566406 94.050781 113.585938 87.914063 113.585938 L 11.195313 113.585938 C 5.058594 113.585938 0.0390625 108.566406 0.0390625 102.429688 L 0.0390625 74.53125 L 33.550781 74.53125 L 33.550781 89.054688 L 65.535156 89.054688 L 65.535156 78.808594 L 8.4375 53.992188 C 3.898438 51.832031 0.0390625 50.058594 0.0859375 41.480469 L 0.0859375 11.117188 C 0.0859375 4.984375 5.058594 -0.0351563 11.195313 -0.0351563 Z M 11.195313 -0.0351563 "/>
</g>
</g>
</svg>
